<svg xmlns="http://www.w3.org/2000/svg" version="1.1" xmlns:xlink="http://www.w3.org/1999/xlink" xmlns:svgjs="http://svgjs.dev/svgjs" width="1000" height="351" viewBox="0 0 1000 351"><g transform="matrix(1,0,0,1,-0.48330705718132094,0.5043556085421983)"><svg viewBox="0 0 236 83" data-background-color="#ffffff" preserveAspectRatio="xMidYMid meet" height="351" width="1000" xmlns="http://www.w3.org/2000/svg" xmlns:xlink="http://www.w3.org/1999/xlink"><g id="tight-bounds" transform="matrix(1,0,0,1,0.11406046549478788,-0.11926357694872536)"><svg viewBox="0 0 235.77187906901042 83.23852685659097" height="83.23852685659097" width="235.77187906901042"><g><svg viewBox="0 0 235.77187906901042 83.23852685659097" height="83.23852685659097" width="235.77187906901042"><g><svg viewBox="0 0 235.77187906901042 83.23852685659097" height="83.23852685659097" width="235.77187906901042"><g id="textblocktransform"><svg viewBox="0 0 235.77187906901042 83.23852685659097" height="83.23852685659097" width="235.77187906901042" id="textblock"><g><svg viewBox="0 0 235.77187906901042 59.094921875" height="59.094921875" width="235.77187906901042"><g><svg><g></g><g></g></svg></g><g><svg><g><svg></svg></g><g></g></svg></g><g id="text-0"><svg viewBox="0 0 235.77187906901042 59.094921875" height="59.094921875" width="235.77187906901042"><g transform="matrix(1,0,0,1,0,0)"><svg width="170.72744140625" viewBox="2.8299999237060547 -36.040000915527344 105.50999450683594 36.53000259399414" height="59.094921875" data-palette-color="#001f3f"><path d="M22.73-35.55L30.08-35.55 30.08-12.13Q30.08-6.3 26.43-2.91 22.78 0.49 16.46 0.49L16.46 0.49Q10.23 0.49 6.57-2.81 2.91-6.1 2.83-11.87L2.83-11.87 2.83-35.55 10.16-35.55 10.16-12.08Q10.16-8.59 11.83-6.99 13.5-5.4 16.46-5.4L16.46-5.4Q22.63-5.4 22.73-11.89L22.73-11.89 22.73-35.55ZM43.87-35.55L43.87 0 36.55 0 36.55-35.55 43.87-35.55ZM70.48 0L63.81-13.01 57.98-13.01 57.98 0 50.65 0 50.65-35.55 63.86-35.55Q70.16-35.55 73.58-32.74 77-29.93 77-24.8L77-24.8Q77-21.17 75.42-18.74 73.85-16.31 70.65-14.87L70.65-14.87 78.34-0.34 78.34 0 70.48 0ZM57.98-29.61L57.98-18.95 63.89-18.95Q66.65-18.95 68.16-20.35 69.67-21.75 69.67-24.22L69.67-24.22Q69.67-26.73 68.24-28.17 66.82-29.61 63.86-29.61L63.86-29.61 57.98-29.61ZM100.99-9.33L100.99-9.33Q100.99-11.4 99.53-12.51 98.06-13.62 94.26-14.86 90.45-16.09 88.22-17.29L88.22-17.29Q82.17-20.56 82.17-26.1L82.17-26.1Q82.17-28.98 83.79-31.24 85.42-33.5 88.46-34.77 91.5-36.04 95.28-36.04L95.28-36.04Q99.09-36.04 102.07-34.66 105.05-33.28 106.69-30.76 108.34-28.25 108.34-25.05L108.34-25.05 101.02-25.05Q101.02-27.49 99.48-28.85 97.94-30.2 95.16-30.2L95.16-30.2Q92.47-30.2 90.98-29.06 89.49-27.93 89.49-26.07L89.49-26.07Q89.49-24.34 91.24-23.17 92.99-22 96.38-20.97L96.38-20.97Q102.63-19.09 105.49-16.31 108.34-13.53 108.34-9.38L108.34-9.38Q108.34-4.76 104.85-2.14 101.36 0.49 95.45 0.49L95.45 0.49Q91.35 0.49 87.98-1.01 84.61-2.51 82.84-5.13 81.07-7.74 81.07-11.18L81.07-11.18 88.42-11.18Q88.42-5.3 95.45-5.3L95.45-5.3Q98.06-5.3 99.53-6.36 100.99-7.42 100.99-9.33Z" opacity="1" transform="matrix(1,0,0,1,0,0)" fill="#001f3f" class="undefined-text-0" data-fill-palette-color="primary"></path></svg></g><g><svg xmlns="http://www.w3.org/2000/svg" xmlns:xlink="http://www.w3.org/1999/xlink" version="1.1" x="184.67939453124998" y="0" viewBox="9 1 83 96" enable-background="new 0 0 100 100" xml:space="preserve" height="59.094921875" width="51.09248453776041" class="icon-s-0" data-fill-palette-color="accent" id="s-0"><g fill="#ffdc00" data-fill-palette-color="accent"><path fill="#ffdc00" d="M71.3 10.01C57.831 10.01 50.55 1 50.55 1s-7.306 9.01-20.774 9.01C17.371 10.01 9 2.528 9 2.528v48.928C9.378 83.682 50.5 97 50.5 97S92 83.682 92 51.456V2.528C92 2.528 83.703 10.01 71.3 10.01z" data-fill-palette-color="accent"></path></g></svg></g></svg></g></svg></g><g transform="matrix(1,0,0,1,45.032428902180996,73.0458146515625)"><svg viewBox="0 0 145.70702126464843 10.192712205028464" height="10.192712205028464" width="145.70702126464843"><g transform="matrix(1,0,0,1,0,0)"><svg width="145.70702126464843" viewBox="1.2200000286102295 -32.56999969482422 598.1100463867188 41.849998474121094" height="10.192712205028464" data-palette-color="#0074d9"><path d="M1.22-28.52L5.66-27.49 5.66-2.95 1.59-1.81 1.39 0 26.17 0 26.9-7.64 24.88-7.96 22.49-2.34 10.4-2.34 10.4-14.23 17.09-14.23 17.92-9.96 20-10.28 20.83-19.78 18.51-19.43 17.48-16.5 10.4-16.5 10.4-28.13 21.9-28.13 22.9-22.88 25.02-22.56 25.78-30.37 1.49-30.37 1.22-28.52ZM40.99 0L41.16-2.03 35.18-2.95 35.18-19.14 41.16-19.14 41.45-21.31 35.18-21.31 35.23-23.95Q35.3-27.32 36.09-28.65 36.89-29.98 38.38-29.98L38.38-29.98Q39.4-29.98 40.57-29.08 41.75-28.17 42.67-27.03L42.67-27.03Q43.38-27.29 44.11-28.11 44.85-28.93 44.85-29.76L44.85-29.76Q44.85-31.15 43.59-31.86 42.33-32.57 40.28-32.57L40.28-32.57Q38.43-32.57 36.45-31.3 34.47-30.03 32.99-27.51 31.52-25 31.13-21.46L31.13-21.46 27.76-20.92 27.46-19.14 31.1-19.14 31.1-2.83 27.39-1.78 27.1 0 40.99 0ZM57.93 0L58.1-2.03 52.12-2.95 52.12-19.14 58.1-19.14 58.39-21.31 52.12-21.31 52.17-23.95Q52.24-27.32 53.03-28.65 53.83-29.98 55.32-29.98L55.32-29.98Q56.34-29.98 57.51-29.08 58.69-28.17 59.61-27.03L59.61-27.03Q60.32-27.29 61.05-28.11 61.79-28.93 61.79-29.76L61.79-29.76Q61.79-31.15 60.53-31.86 59.27-32.57 57.22-32.57L57.22-32.57Q55.37-32.57 53.39-31.3 51.41-30.03 49.93-27.51 48.46-25 48.07-21.46L48.07-21.46 44.7-20.92 44.4-19.14 48.04-19.14 48.04-2.83 44.33-1.78 44.04 0 57.93 0ZM66.84-26.12Q67.62-26.12 68.32-26.53 69.01-26.93 69.41-27.61 69.82-28.3 69.82-29.1L69.82-29.1Q69.82-30.27 68.94-31.08 68.06-31.88 66.84-31.88L66.84-31.88Q65.67-31.88 64.8-31.09 63.93-30.3 63.93-29.15L63.93-29.15Q63.93-28.34 64.32-27.65 64.71-26.95 65.39-26.54 66.06-26.12 66.84-26.12L66.84-26.12ZM61.03 0L72.75 0 73.01-1.95 69.11-2.83 69.11-21 68.5-21.61 61.64-21.04 61.32-19.19 65.01-17.85 65.01-2.83 61.32-1.93 61.03 0ZM84.15 0.73Q86.42 0.73 88.55-0.16 90.69-1.05 91.71-2.27L91.71-2.27 91.1-3.69Q90-2.98 88.91-2.59 87.81-2.2 86.17-2.2L86.17-2.2Q83.8-2.2 82.17-3.81 80.53-5.42 79.73-7.79 78.92-10.16 78.92-12.38L78.92-12.38Q78.92-14.58 79.52-16.22 80.12-17.87 81.2-18.77 82.29-19.68 83.73-19.68L83.73-19.68Q85.15-19.68 86.04-18.54 86.93-17.41 87.66-15.67L87.66-15.67Q89.15-15.77 89.96-16.46 90.76-17.14 90.76-18.24L90.76-18.24Q90.76-19.24 90.11-20.09 89.47-20.95 88.15-21.46 86.83-21.97 84.88-21.97L84.88-21.97Q82.19-21.97 79.81-20.5 77.43-19.02 75.97-16.32 74.5-13.62 74.5-10.13L74.5-10.13Q74.5-7.2 75.7-4.71 76.89-2.22 79.09-0.74 81.29 0.73 84.15 0.73L84.15 0.73ZM98.99-26.12Q99.77-26.12 100.46-26.53 101.16-26.93 101.56-27.61 101.97-28.3 101.97-29.1L101.97-29.1Q101.97-30.27 101.09-31.08 100.21-31.88 98.99-31.88L98.99-31.88Q97.81-31.88 96.95-31.09 96.08-30.3 96.08-29.15L96.08-29.15Q96.08-28.34 96.47-27.65 96.86-26.95 97.53-26.54 98.21-26.12 98.99-26.12L98.99-26.12ZM93.18 0L104.89 0 105.16-1.95 101.26-2.83 101.26-21 100.65-21.61 93.79-21.04 93.47-19.19 97.16-17.85 97.16-2.83 93.47-1.93 93.18 0ZM115.9 0.73Q118.3 0.73 120.38-0.13 122.47-1 123.94-2.54L123.94-2.54 123.42-3.83Q122.23-3.2 121.32-2.91 120.42-2.61 119.74-2.55 119.05-2.49 117.88-2.49L117.88-2.49Q115.73-2.49 114.23-3.72 112.73-4.96 111.95-6.88 111.17-8.81 111.07-10.86L111.07-10.86 122.89-11.01Q123.03-11.65 123.15-12.63 123.28-13.62 123.28-14.18L123.28-14.18Q123.28-16.67 122.41-18.42 121.54-20.17 120.05-21.06 118.56-21.95 116.76-21.95L116.76-21.95Q114.32-21.95 112-20.56 109.68-19.17 108.2-16.55 106.72-13.94 106.72-10.45L106.72-10.45Q106.72-6.91 108.02-4.37 109.31-1.83 111.42-0.55 113.53 0.73 115.9 0.73L115.9 0.73ZM115.56-19.56Q118.93-19.56 118.93-15.01L118.93-15.01Q118.93-14.65 118.89-14.12 118.86-13.6 118.78-13.33L118.78-13.33 111.12-12.77Q111.24-15.01 111.91-16.54 112.58-18.07 113.56-18.81 114.54-19.56 115.56-19.56L115.56-19.56ZM137.24 0L137.58-1.93 133.94-2.78 133.94-16.48Q134.85-17.48 136.12-18.03 137.38-18.58 138.75-18.58L138.75-18.58Q140.68-18.58 141.84-17.47 143-16.36 143-14.09L143-14.09 143-2.78 139.63-1.78 139.39 0 150.35 0 150.59-1.93 147.08-2.78 147.08-15.04Q147.08-18.33 145.56-20.14 144.05-21.95 141.19-21.95L141.19-21.95Q139.05-21.95 137.14-20.85 135.24-19.75 133.84-18.09L133.84-18.09 133.6-18.09 134.02-21.22 133.6-21.68 126.33-20.73 126.08-18.87 129.84-17.6 129.84-2.78 126.15-1.78 125.91 0 137.24 0ZM154.67-18.63L154.57-6.35Q154.55-2.54 155.92-0.99 157.3 0.56 159.77 0.56L159.77 0.56Q161.82 0.56 163.53-0.39 165.24-1.34 166.39-3.03L166.39-3.03 165.87-4.35Q165.87-4.32 165.3-3.96 164.73-3.59 163.94-3.28 163.16-2.98 162.36-2.98L162.36-2.98Q161.06-2.98 160.28-3.42 159.5-3.86 159.14-4.91 158.77-5.96 158.77-7.79L158.77-7.79 158.84-18.58 165.58-18.58 165.8-20.73 158.89-20.73 158.89-26.54 157.6-26.54Q156.28-24.73 154.67-22.95 153.06-21.17 151.57-19.95L151.57-19.95 151.57-18.63 154.67-18.63ZM174.12-19.51L176.93-18.51 182.74 0.68 185.64 0.24 189.72-14.31 194.19 0.68 197.09 0.24 202.51-18.55 205.15-19.56 205.44-21.36 196.09-21.36 195.85-19.51 199.51-18.51 195.95-5.71 195.43-8.42 191.85-20.24 188.45-19.8 184.52-5.86 183.93-8.79 180.98-18.55 184.28-19.56 184.5-21.36 174.36-21.36 174.12-19.51ZM211.18 0.59Q213.82 0.59 215.49-0.62 217.16-1.83 217.87-3.2L217.87-3.2 218.14-3.2 218.14-2.83Q218.14-2.03 218.51-1.28 218.89-0.54 219.75-0.05 220.6 0.44 221.92 0.44L221.92 0.44Q222.95 0.44 224.12 0.17L224.12 0.17Q224.87 0.02 225.24-0.02L225.24-0.02 225.56-2.12 224.34-2.34Q223.19-2.54 222.62-2.87 222.04-3.2 221.82-3.82 221.6-4.44 221.6-5.62L221.6-5.62 221.6-14.48Q221.6-18.38 220.2-20.18 218.8-21.97 215.57-21.97L215.57-21.97Q213.86-21.97 211.89-21.26 209.91-20.56 208.57-19.4 207.22-18.24 207.22-16.97L207.22-16.97Q207.22-15.38 208.2-14.92 209.18-14.45 210.62-14.45L210.62-14.45Q210.84-16.92 211-17.85 211.15-18.77 211.67-19.24 212.18-19.7 213.33-19.7L213.33-19.7Q215.65-19.7 216.65-17.86 217.65-16.02 217.65-13.18L217.65-13.18 217.65-11.84Q213.84-11.57 211.31-10.44 208.79-9.3 207.59-7.64 206.39-5.98 206.39-4.1L206.39-4.1Q206.39-2.66 207.04-1.6 207.69-0.54 208.79 0.02 209.88 0.59 211.18 0.59L211.18 0.59ZM217.65-10.45L217.65-4.59Q216.92-3.78 215.74-3.1 214.57-2.42 213.4-2.42L213.4-2.42Q212.55-2.42 211.92-2.86 211.3-3.3 210.98-3.96 210.67-4.61 210.67-5.25L210.67-5.25Q210.67-7.13 212.25-8.41 213.84-9.69 217.65-10.45L217.65-10.45ZM229.46 9.28Q231.37 9.28 232.71 8.57 234.05 7.86 235.22 6.15 236.4 4.44 237.67 1.29L237.67 1.29 245.75-18.51 248.21-19.51 248.38-21.31 240.03-21.31 239.69-19.48 242.89-18.46 237.62-5.42 232.64-18.58 235.74-19.51 235.96-21.31 225.7-21.31 225.43-19.43 228.46-18.51 235.42 0 234.93 1.2Q234.05 3.37 233.01 4.05 231.98 4.74 230.76 4.74L230.76 4.74Q229.8 4.74 228.94 4.43 228.07 4.13 227.07 3.44L227.07 3.44Q226.29 4.13 226 4.83 225.7 5.54 225.7 6.37L225.7 6.37Q225.7 7.08 226.18 7.75 226.65 8.42 227.52 8.85 228.39 9.28 229.46 9.28L229.46 9.28ZM259.46-18.63L259.36-6.35Q259.34-2.54 260.72-0.99 262.1 0.56 264.56 0.56L264.56 0.56Q266.62 0.56 268.32-0.39 270.03-1.34 271.18-3.03L271.18-3.03 270.67-4.35Q270.67-4.32 270.09-3.96 269.52-3.59 268.74-3.28 267.96-2.98 267.15-2.98L267.15-2.98Q265.86-2.98 265.08-3.42 264.3-3.86 263.93-4.91 263.56-5.96 263.56-7.79L263.56-7.79 263.64-18.58 270.38-18.58 270.59-20.73 263.69-20.73 263.69-26.54 262.39-26.54Q261.07-24.73 259.46-22.95 257.85-21.17 256.36-19.95L256.36-19.95 256.36-18.63 259.46-18.63ZM282.82 0.66Q285.66 0.66 288-0.78 290.34-2.22 291.7-4.83 293.05-7.45 293.05-10.77L293.05-10.77Q293.05-14.11 291.89-16.66 290.73-19.21 288.55-20.63 286.36-22.05 283.41-22.05L283.41-22.05Q280.63-22.05 278.2-20.65 275.77-19.26 274.28-16.61 272.79-13.96 272.79-10.4L272.79-10.4Q272.79-7.23 273.97-4.72 275.16-2.22 277.42-0.78 279.67 0.66 282.82 0.66L282.82 0.66ZM282.38-19.48Q284.56-19.48 285.99-17.88 287.41-16.28 288.06-13.84 288.71-11.4 288.71-8.76L288.71-8.76Q288.71-6.96 288.15-5.35 287.58-3.74 286.44-2.72 285.29-1.71 283.65-1.71L283.65-1.71Q281.38-1.71 279.92-3.2 278.45-4.69 277.79-7.06 277.14-9.42 277.14-12.13L277.14-12.13Q277.14-14.14 277.7-15.81 278.26-17.48 279.44-18.48 280.63-19.48 282.38-19.48L282.38-19.48ZM316.22 0L316.46-2.12 310.77-2.95 310.77-12.3Q311.02-14.04 311.74-15.23 312.46-16.43 313.34-17.03 314.22-17.63 314.95-17.63L314.95-17.63Q315.66-17.63 316.44-17.37 317.22-17.11 317.93-16.67L317.93-16.67Q319.32-17.85 319.32-19.38L319.32-19.38Q319.32-20.48 318.56-21.3 317.8-22.12 316.61-22.12L316.61-22.12Q315.51-22.12 314.39-21.37 313.26-20.63 312.26-19.14 311.26-17.65 310.63-15.53L310.63-15.53 310.16-15.53 310.65-21.14 310.09-21.73 303.08-20.83 302.74-18.97 306.72-17.77 306.72-2.78 302.98-1.81 302.74 0 316.22 0ZM330.18 0.73Q332.57 0.73 334.66-0.13 336.75-1 338.21-2.54L338.21-2.54 337.7-3.83Q336.5-3.2 335.6-2.91 334.7-2.61 334.01-2.55 333.33-2.49 332.16-2.49L332.16-2.49Q330.01-2.49 328.51-3.72 327.01-4.96 326.22-6.88 325.44-8.81 325.35-10.86L325.35-10.86 337.16-11.01Q337.31-11.65 337.43-12.63 337.55-13.62 337.55-14.18L337.55-14.18Q337.55-16.67 336.69-18.42 335.82-20.17 334.33-21.06 332.84-21.95 331.03-21.95L331.03-21.95Q328.59-21.95 326.27-20.56 323.95-19.17 322.48-16.55 321-13.94 321-10.45L321-10.45Q321-6.91 322.29-4.37 323.59-1.83 325.7-0.55 327.81 0.73 330.18 0.73L330.18 0.73ZM329.84-19.56Q333.21-19.56 333.21-15.01L333.21-15.01Q333.21-14.65 333.17-14.12 333.13-13.6 333.06-13.33L333.06-13.33 325.39-12.77Q325.52-15.01 326.19-16.54 326.86-18.07 327.84-18.81 328.81-19.56 329.84-19.56L329.84-19.56ZM350.98 9.08L351.27 7.13 347.46 6.27 347.46-16.26Q348.44-17.29 349.74-18.02 351.05-18.75 352.47-18.75L352.47-18.75Q354.79-18.75 355.96-16.52 357.13-14.28 357.13-9.91L357.13-9.91Q357.13-6.37 355.81-4.27 354.49-2.17 352.03-2.17L352.03-2.17Q350.59-2.17 349.85-2.28 349.12-2.39 348.29-2.71L348.29-2.71 348.44 0.24Q349.66 0.46 350.73 0.46L350.73 0.46Q353.83 0.46 356.31-1.05 358.79-2.56 360.19-5.27 361.6-7.98 361.6-11.4L361.6-11.4Q361.6-14.99 360.65-17.35 359.69-19.7 358.03-20.83 356.37-21.95 354.2-21.95L354.2-21.95Q352.05-21.95 350.34-20.75 348.63-19.56 347.46-17.92L347.46-17.92 347.29-17.92 347.63-21.07 347.12-21.53 340.02-20.63 339.72-18.75 343.48-17.63 343.48 6.25 339.75 7.18 339.6 9.08 350.98 9.08ZM374.22 0.66Q377.05 0.66 379.39-0.78 381.74-2.22 383.09-4.83 384.45-7.45 384.45-10.77L384.45-10.77Q384.45-14.11 383.29-16.66 382.13-19.21 379.94-20.63 377.76-22.05 374.8-22.05L374.8-22.05Q372.02-22.05 369.59-20.65 367.16-19.26 365.67-16.61 364.18-13.96 364.18-10.4L364.18-10.4Q364.18-7.23 365.37-4.72 366.55-2.22 368.81-0.78 371.07 0.66 374.22 0.66L374.22 0.66ZM373.78-19.48Q375.95-19.48 377.38-17.88 378.81-16.28 379.45-13.84 380.1-11.4 380.1-8.76L380.1-8.76Q380.1-6.96 379.54-5.35 378.98-3.74 377.83-2.72 376.68-1.71 375.05-1.71L375.05-1.71Q372.78-1.71 371.31-3.2 369.85-4.69 369.19-7.06 368.53-9.42 368.53-12.13L368.53-12.13Q368.53-14.14 369.09-15.81 369.65-17.48 370.84-18.48 372.02-19.48 373.78-19.48L373.78-19.48ZM400.17 0L400.41-2.12 394.72-2.95 394.72-12.3Q394.97-14.04 395.69-15.23 396.41-16.43 397.29-17.03 398.17-17.63 398.9-17.63L398.9-17.63Q399.61-17.63 400.39-17.37 401.17-17.11 401.88-16.67L401.88-16.67Q403.27-17.85 403.27-19.38L403.27-19.38Q403.27-20.48 402.51-21.3 401.75-22.12 400.56-22.12L400.56-22.12Q399.46-22.12 398.34-21.37 397.21-20.63 396.21-19.14 395.21-17.65 394.58-15.53L394.58-15.53 394.11-15.53 394.6-21.14 394.04-21.73 387.03-20.83 386.69-18.97 390.67-17.77 390.67-2.78 386.93-1.81 386.69 0 400.17 0ZM407.44-18.63L407.34-6.35Q407.32-2.54 408.7-0.99 410.08 0.56 412.54 0.56L412.54 0.56Q414.59 0.56 416.3-0.39 418.01-1.34 419.16-3.03L419.16-3.03 418.65-4.35Q418.65-4.32 418.07-3.96 417.5-3.59 416.72-3.28 415.94-2.98 415.13-2.98L415.13-2.98Q413.84-2.98 413.06-3.42 412.27-3.86 411.91-4.91 411.54-5.96 411.54-7.79L411.54-7.79 411.61-18.58 418.35-18.58 418.57-20.73 411.66-20.73 411.66-26.54 410.37-26.54Q409.05-24.73 407.44-22.95 405.83-21.17 404.34-19.95L404.34-19.95 404.34-18.63 407.44-18.63ZM433.66-26.12Q434.44-26.12 435.13-26.53 435.83-26.93 436.23-27.61 436.63-28.3 436.63-29.1L436.63-29.1Q436.63-30.27 435.76-31.08 434.88-31.88 433.66-31.88L433.66-31.88Q432.48-31.88 431.62-31.09 430.75-30.3 430.75-29.15L430.75-29.15Q430.75-28.34 431.14-27.65 431.53-26.95 432.2-26.54 432.87-26.12 433.66-26.12L433.66-26.12ZM427.85 0L439.56 0 439.83-1.95 435.93-2.83 435.93-21 435.32-21.61 428.46-21.04 428.14-19.19 431.82-17.85 431.82-2.83 428.14-1.93 427.85 0ZM452.33 0L452.67-1.93 449.03-2.78 449.03-16.48Q449.94-17.48 451.21-18.03 452.48-18.58 453.84-18.58L453.84-18.58Q455.77-18.58 456.93-17.47 458.09-16.36 458.09-14.09L458.09-14.09 458.09-2.78 454.72-1.78 454.48 0 465.44 0 465.68-1.93 462.17-2.78 462.17-15.04Q462.17-18.33 460.66-20.14 459.14-21.95 456.29-21.95L456.29-21.95Q454.14-21.95 452.23-20.85 450.33-19.75 448.94-18.09L448.94-18.09 448.69-18.09 449.11-21.22 448.69-21.68 441.42-20.73 441.17-18.87 444.93-17.6 444.93-2.78 441.25-1.78 441 0 452.33 0ZM476.84 0.73Q479.11 0.73 481.25-0.16 483.38-1.05 484.41-2.27L484.41-2.27 483.8-3.69Q482.7-2.98 481.6-2.59 480.5-2.2 478.87-2.2L478.87-2.2Q476.5-2.2 474.86-3.81 473.23-5.42 472.42-7.79 471.61-10.16 471.61-12.38L471.61-12.38Q471.61-14.58 472.21-16.22 472.81-17.87 473.9-18.77 474.98-19.68 476.42-19.68L476.42-19.68Q477.84-19.68 478.73-18.54 479.62-17.41 480.35-15.67L480.35-15.67Q481.84-15.77 482.65-16.46 483.46-17.14 483.46-18.24L483.46-18.24Q483.46-19.24 482.81-20.09 482.16-20.95 480.84-21.46 479.52-21.97 477.57-21.97L477.57-21.97Q474.89-21.97 472.51-20.5 470.13-19.02 468.66-16.32 467.2-13.62 467.2-10.13L467.2-10.13Q467.2-7.2 468.39-4.71 469.59-2.22 471.79-0.74 473.98 0.73 476.84 0.73L476.84 0.73ZM491.68-26.12Q492.46-26.12 493.16-26.53 493.85-26.93 494.26-27.61 494.66-28.3 494.66-29.1L494.66-29.1Q494.66-30.27 493.78-31.08 492.9-31.88 491.68-31.88L491.68-31.88Q490.51-31.88 489.64-31.09 488.78-30.3 488.78-29.15L488.78-29.15Q488.78-28.34 489.17-27.65 489.56-26.95 490.23-26.54 490.9-26.12 491.68-26.12L491.68-26.12ZM485.87 0L497.59 0 497.86-1.95 493.95-2.83 493.95-21 493.34-21.61 486.48-21.04 486.16-19.19 489.85-17.85 489.85-2.83 486.16-1.93 485.87 0ZM507.4 0.51Q509.72 0.51 511.33-0.51 512.94-1.54 514.16-3.2L514.16-3.2 514.38-3.2 514.38-3.03Q514.38-1.44 515.32-0.44 516.26 0.56 518.02 0.56L518.02 0.56Q519.12 0.56 519.82 0.48 520.51 0.39 521.61 0.1L521.61 0.1 521.88-1.93 520.78-2.17Q519.73-2.42 519.23-2.62 518.73-2.83 518.42-3.43 518.12-4.03 518.12-5.25L518.12-5.25 518.12-31.03 517.61-31.62 510.82-31.03 510.48-29.2 514.19-27.86 514.19-24.02 514.48-20.9 514.31-20.9Q513.7-21.34 512.5-21.66 511.31-21.97 510.11-21.97L510.11-21.97Q507.57-21.97 505.09-20.36 502.62-18.75 501.03-15.94 499.44-13.13 499.44-9.74L499.44-9.74Q499.44-6.49 500.5-4.17 501.57-1.86 503.38-0.67 505.2 0.51 507.4 0.51L507.4 0.51ZM508.94-19.58Q510.23-19.58 511.73-18.68 513.24-17.77 514.16-16.26L514.16-16.26 514.16-4.81Q513.46-3.98 512-3.27 510.55-2.56 509.13-2.56L509.13-2.56Q507.57-2.56 506.35-3.55 505.13-4.54 504.43-6.51 503.74-8.47 503.74-11.28L503.74-11.28Q503.74-15.06 504.98-17.32 506.23-19.58 508.94-19.58L508.94-19.58ZM532.69 0.73Q535.08 0.73 537.17-0.13 539.26-1 540.72-2.54L540.72-2.54 540.21-3.83Q539.01-3.2 538.11-2.91 537.21-2.61 536.52-2.55 535.84-2.49 534.67-2.49L534.67-2.49Q532.52-2.49 531.02-3.72 529.52-4.96 528.74-6.88 527.95-8.81 527.86-10.86L527.86-10.86 539.67-11.01Q539.82-11.65 539.94-12.63 540.06-13.62 540.06-14.18L540.06-14.18Q540.06-16.67 539.2-18.42 538.33-20.17 536.84-21.06 535.35-21.95 533.55-21.95L533.55-21.95Q531.1-21.95 528.78-20.56 526.47-19.17 524.99-16.55 523.51-13.94 523.51-10.45L523.51-10.45Q523.51-6.91 524.81-4.37 526.1-1.83 528.21-0.55 530.32 0.73 532.69 0.73L532.69 0.73ZM532.35-19.56Q535.72-19.56 535.72-15.01L535.72-15.01Q535.72-14.65 535.68-14.12 535.65-13.6 535.57-13.33L535.57-13.33 527.91-12.77Q528.03-15.01 528.7-16.54 529.37-18.07 530.35-18.81 531.32-19.56 532.35-19.56L532.35-19.56ZM554.03 0L554.37-1.93 550.73-2.78 550.73-16.48Q551.63-17.48 552.9-18.03 554.17-18.58 555.54-18.58L555.54-18.58Q557.47-18.58 558.63-17.47 559.79-16.36 559.79-14.09L559.79-14.09 559.79-2.78 556.42-1.78 556.17 0 567.14 0 567.38-1.93 563.87-2.78 563.87-15.04Q563.87-18.33 562.35-20.14 560.84-21.95 557.98-21.95L557.98-21.95Q555.83-21.95 553.93-20.85 552.02-19.75 550.63-18.09L550.63-18.09 550.39-18.09 550.8-21.22 550.39-21.68 543.11-20.73 542.87-18.87 546.63-17.6 546.63-2.78 542.94-1.78 542.7 0 554.03 0ZM571.46-18.63L571.36-6.35Q571.33-2.54 572.71-0.99 574.09 0.56 576.56 0.56L576.56 0.56Q578.61 0.56 580.32-0.39 582.03-1.34 583.17-3.03L583.17-3.03 582.66-4.35Q582.66-4.32 582.09-3.96 581.51-3.59 580.73-3.28 579.95-2.98 579.15-2.98L579.15-2.98Q577.85-2.98 577.07-3.42 576.29-3.86 575.92-4.91 575.56-5.96 575.56-7.79L575.56-7.79 575.63-18.58 582.37-18.58 582.59-20.73 575.68-20.73 575.68-26.54 574.39-26.54Q573.07-24.73 571.46-22.95 569.84-21.17 568.36-19.95L568.36-19.95 568.36-18.63 571.46-18.63ZM591.81 0.83Q593.69 0.83 595.44 0.02 597.19-0.78 598.26-2.21 599.33-3.64 599.33-5.37L599.33-5.37Q599.33-7.01 598.48-8.26 597.63-9.52 596.42-10.38 595.21-11.23 593.25-12.3L593.25-12.3Q591.64-13.21 590.74-13.82 589.84-14.43 589.23-15.22 588.62-16.02 588.62-16.99L588.62-16.99Q588.62-18.21 589.36-19.07 590.11-19.92 591.35-19.92L591.35-19.92Q592.77-19.92 593.74-18.54 594.72-17.16 595.16-14.38L595.16-14.38Q596.75-14.48 597.66-15.36 598.58-16.24 598.58-17.63L598.58-17.63Q598.58-18.85 597.83-19.84 597.09-20.83 595.72-21.4 594.35-21.97 592.6-21.97L592.6-21.97Q590.28-21.97 588.63-20.98 586.98-20 586.15-18.51 585.32-17.02 585.32-15.5L585.32-15.5Q585.32-13.75 586.21-12.4 587.1-11.06 588.36-10.14 589.62-9.23 591.62-8.08L591.62-8.08Q593.08-7.25 593.9-6.7 594.72-6.15 595.26-5.48 595.79-4.81 595.79-4.03L595.79-4.03Q595.79-2.76 594.89-2.16 593.99-1.56 592.57-1.56L592.57-1.56Q591.06-1.56 589.79-2.77 588.52-3.98 587.71-6.37L587.71-6.37Q586.35-6.27 585.54-5.3 584.73-4.32 584.73-2.95L584.73-2.95Q584.73-1.98 585.61-1.1 586.49-0.22 588.1 0.31 589.71 0.83 591.81 0.83L591.81 0.83Z" opacity="1" transform="matrix(1,0,0,1,0,0)" fill="#0074d9" class="undefined-text-1" data-fill-palette-color="secondary" id="text-1"></path></svg></g></svg></g></svg></g></svg></g></svg></g><defs></defs></svg><rect width="235.77187906901042" height="83.23852685659097" fill="none" stroke="none" visibility="hidden"></rect></g></svg></g></svg>