<?xml version="1.0" encoding="UTF-8" standalone="no"?>
<!-- Generator: Adobe Illustrator 13.0.0, SVG Export Plug-In . SVG Version: 6.00 Build 14948)  -->

<svg
   xmlns:dc="http://purl.org/dc/elements/1.1/"
   xmlns:cc="http://creativecommons.org/ns#"
   xmlns:rdf="http://www.w3.org/1999/02/22-rdf-syntax-ns#"
   xmlns:svg="http://www.w3.org/2000/svg"
   xmlns="http://www.w3.org/2000/svg"
   xmlns:sodipodi="http://sodipodi.sourceforge.net/DTD/sodipodi-0.dtd"
   xmlns:inkscape="http://www.inkscape.org/namespaces/inkscape"
   version="1.1"
   id="Layer_1"
   x="0px"
   y="0px"
   width="224.15px"
   height="312.702px"
   viewBox="0 0 224.15 312.702"
   enable-background="new 0 0 224.15 312.702"
   xml:space="preserve"
   inkscape:version="0.48.5 r10040"
   sodipodi:docname="Philippine_National_Police_seal.svg"><metadata
   id="metadata55"><rdf:RDF><cc:Work
       rdf:about=""><dc:format>image/svg+xml</dc:format><dc:type
         rdf:resource="http://purl.org/dc/dcmitype/StillImage" /></cc:Work></rdf:RDF></metadata><defs
   id="defs53"><inkscape:path-effect
   effect="spiro"
   id="path-effect3908"
   is_visible="true" /><inkscape:path-effect
   effect="spiro"
   id="path-effect3874"
   is_visible="true" />
	
		
	
		
	
		
	
		
	
		
	
	
	
	
	
		
	
		
	
		
	
	
		
	
		
	
		
	
		
	
		
	
		
	
		
	
	
	
</defs><sodipodi:namedview
   pagecolor="#ffffff"
   bordercolor="#666666"
   borderopacity="1"
   objecttolerance="10"
   gridtolerance="10"
   guidetolerance="10"
   inkscape:pageopacity="0"
   inkscape:pageshadow="2"
   inkscape:window-width="1366"
   inkscape:window-height="706"
   id="namedview51"
   showgrid="false"
   inkscape:zoom="1.0673242"
   inkscape:cx="-35.105284"
   inkscape:cy="120.16739"
   inkscape:window-x="-8"
   inkscape:window-y="-8"
   inkscape:window-maximized="1"
   inkscape:current-layer="Layer_1" />
<path
   style="fill:#2e3192;fill-rule:evenodd;stroke:#000000;stroke-width:1.25010002;stroke-miterlimit:2.61310005;stroke-opacity:1"
   d="m 92.431,305.378 -0.413,-2.949 -0.569,-2.723 -0.711,-2.498 -0.837,-2.274 -0.947,-2.052 -1.041,-1.833 -1.12,-1.617 -1.182,-1.406 -1.232,-1.198 -1.266,-0.998 -1.288,-0.806 -1.301,-0.62 -1.305,-0.441 -1.302,-0.272 -1.299,-0.104 -1.29,0.059 -1.283,0.222 -1.272,0.389 -1.258,0.563 -1.242,0.744 -1.214,0.935 -1.177,1.135 -1.128,1.345 -1.064,1.559 -0.984,1.783 -0.888,2.011 -0.775,2.242 -0.646,2.477 -0.499,2.711 -0.338,2.949 -0.334,6.646 -21.77,0 -38.723,-128.872 3.265,-2.127 0.99,-0.672 0.959,-0.68 0.928,-0.687 0.897,-0.692 0.866,-0.698 0.836,-0.704 0.806,-0.709 0.775,-0.713 0.745,-0.718 0.715,-0.722 0.685,-0.725 0.656,-0.73 0.626,-0.731 0.598,-0.735 0.568,-0.737 0.54,-0.739 0.511,-0.74 0.484,-0.744 0.455,-0.743 0.427,-0.745 0.401,-0.745 0.373,-0.746 0.347,-0.746 0.319,-0.746 0.294,-0.746 0.267,-0.746 0.242,-0.747 0.215,-0.744 0.191,-0.745 0.166,-0.744 0.491,-2.591 -0.02,-2.64 -0.038,-0.848 -0.069,-0.845 -0.101,-0.844 -0.133,-0.843 -0.164,-0.842 -0.196,-0.838 -0.227,-0.838 -0.259,-0.835 -0.291,-0.833 -0.324,-0.831 -0.355,-0.828 -0.388,-0.824 -0.42,-0.822 -0.453,-0.818 -0.484,-0.813 -0.518,-0.809 -0.552,-0.805 -0.584,-0.798 -0.616,-0.793 -0.65,-0.787 -0.683,-0.781 -0.717,-0.772 -0.748,-0.766 -0.783,-0.756 -0.816,-0.748 L 9.933,132.252 9.051,131.523 8.135,130.804 7.187,130.097 6.205,129.4 2.98,127.224 42.31,0.641 l 54.818,0.631 0.505,4.782 0.2,1.561 0.225,1.501 0.251,1.441 0.274,1.382 0.298,1.323 0.319,1.262 0.34,1.205 0.359,1.147 0.376,1.089 0.393,1.031 0.409,0.974 0.423,0.917 0.434,0.862 0.444,0.805 0.455,0.752 0.462,0.697 0.467,0.644 0.472,0.593 0.475,0.542 0.477,0.492 0.476,0.444 0.475,0.398 0.473,0.354 0.471,0.311 0.466,0.271 0.463,0.232 0.46,0.196 0.457,0.162 0.454,0.128 0.453,0.097 1.862,0.272 1.934,-0.606 0.515,-0.196 0.517,-0.233 0.526,-0.272 0.525,-0.312 0.529,-0.352 0.531,-0.392 0.53,-0.433 0.525,-0.475 0.524,-0.516 0.517,-0.558 0.512,-0.599 0.502,-0.64 0.492,-0.681 0.48,-0.723 0.467,-0.762 0.453,-0.803 0.436,-0.842 0.42,-0.882 0.4,-0.92 0.381,-0.959 0.359,-0.996 0.338,-1.034 0.313,-1.071 0.289,-1.108 0.262,-1.143 0.234,-1.179 0.205,-1.214 0.176,-1.248 0.144,-1.283 0.114,-1.316 0.279,-4.759 54.922,0.633 42.34,126.216 -3.823,2.028 -1.089,0.619 -1.047,0.639 -1.008,0.657 -0.967,0.675 -0.926,0.692 -0.886,0.707 -0.848,0.722 -0.809,0.736 -0.771,0.75 -0.734,0.763 -0.698,0.775 -0.66,0.787 -0.623,0.797 -0.59,0.806 -0.553,0.817 -0.517,0.825 -0.484,0.834 -0.45,0.841 -0.416,0.847 -0.383,0.854 -0.351,0.86 -0.316,0.864 -0.286,0.87 -0.254,0.873 -0.22,0.876 -0.19,0.878 -0.158,0.88 -0.129,0.882 -0.097,0.883 -0.065,0.881 -0.111,2.735 0.369,2.709 0.148,0.86 0.176,0.855 0.205,0.847 0.233,0.841 0.261,0.833 0.289,0.823 0.319,0.816 0.343,0.803 0.372,0.794 0.4,0.782 0.424,0.769 0.453,0.756 0.478,0.742 0.506,0.728 0.532,0.713 0.556,0.697 0.582,0.68 0.608,0.663 0.634,0.645 0.659,0.626 0.683,0.607 0.707,0.587 0.735,0.565 0.757,0.545 0.784,0.522 0.806,0.5 0.832,0.476 0.856,0.452 0.881,0.427 0.904,0.401 3.969,1.599 -38.844,130.452 -19.262,0.805 -0.91,-6.699 -0.613,-3.168 -0.752,-2.922 -0.871,-2.675 -0.983,-2.43 -1.074,-2.184 -1.154,-1.945 -1.217,-1.706 -1.266,-1.472 -1.298,-1.247 -1.321,-1.026 -1.328,-0.817 -1.328,-0.618 -1.322,-0.43 -1.313,-0.25 -1.306,-0.078 -1.301,0.091 -1.299,0.261 -1.301,0.438 -1.295,0.622 -1.287,0.815 -1.271,1.019 -1.243,1.229 -1.199,1.448 -1.144,1.669 -1.071,1.897 -0.984,2.125 -0.883,2.355 -0.767,2.586 -0.635,2.818 -0.492,3.048 -0.66,6.492 -16.974,0.309 0,0 -20.49,0.373 z"
   id="polygon5" /><path
   style="fill:#ed1c24;fill-rule:evenodd;stroke:#000000;stroke-width:1.25010002;stroke-miterlimit:2.61310005"
   inkscape:connector-curvature="0"
   id="path7"
   d="m 109.89,308.141 -13.689,0.25 C 94.509,271.074 58.618,270.319 57.868,307.826 H 42.083 L 4.877,184.001 c 11.665,-7.445 18.051,-16.489 19.625,-25.604 h 85.388 v 149.744 l 0,0 z"
   stroke-miterlimit="2.6131"
   clip-rule="evenodd" /><path
   style="fill:#c6262f;fill-rule:evenodd;stroke:#000000;stroke-width:1.25010002;stroke-miterlimit:2.61310005"
   inkscape:connector-curvature="0"
   id="path9"
   d="m 199.672,158.397 c 1.262,10.52 8.178,20.164 19.414,24.473 l -37.207,124.955 -13.529,0.565 c -4.322,-39.769 -38.334,-38.825 -41.152,-0.565 l -13.125,0.239 V 158.397 h 85.599 l 0,0 z"
   stroke-miterlimit="2.6131"
   clip-rule="evenodd" /><path
   style="fill:#ed1c24;fill-rule:evenodd;stroke:#000000;stroke-width:1.25010002;stroke-miterlimit:2.61310005"
   inkscape:connector-curvature="0"
   id="path11"
   d="m 114.072,32.096 c 7.652,-2.14 14.674,-12.338 15.381,-27.894 l 49.045,0.565 40.588,120.997 c -13.27,6.786 -19.361,17.752 -19.615,28.432 h -85.398 v -122.1 l -10e-4,0 z"
   stroke-miterlimit="2.6131"
   clip-rule="evenodd" /><path
   style="fill:#c6262f;fill-rule:evenodd;stroke:#000000;stroke-width:1.25010002;stroke-miterlimit:2.61310005"
   inkscape:connector-curvature="0"
   id="path13"
   d="m 44.901,4.202 49.044,0.565 c 1.754,18.394 8.67,26.853 15.944,27.677 v 121.752 h -85 C 25.01,143.73 18.857,133.479 7.131,125.764 l 37.77,-121.562 0,0 z"
   stroke-miterlimit="2.6131"
   clip-rule="evenodd" /><path
   style="fill-rule:evenodd"
   inkscape:connector-curvature="0"
   id="path15"
   d="m 190.018,238.183 0.227,-0.136 0.334,-0.219 0.32,-0.231 0.311,-0.244 0.295,-0.255 0.283,-0.266 0.271,-0.276 0.258,-0.287 0.246,-0.297 0.23,-0.306 0.219,-0.315 0.205,-0.323 0.191,-0.332 0.18,-0.339 0.164,-0.347 0.152,-0.354 0.137,-0.36 0.125,-0.365 0.109,-0.372 0.098,-0.377 0.082,-0.382 0.068,-0.386 0.057,-0.391 0.041,-0.394 0.027,-0.398 0.012,-0.4 v -0.402 l -0.016,-0.405 -0.09,-1.252 -1.072,0.354 -0.27,0.103 -0.271,0.117 -0.268,0.13 -0.268,0.145 -0.266,0.158 -0.262,0.172 -0.26,0.187 -0.254,0.201 -0.252,0.216 -0.244,0.23 -0.24,0.245 -0.232,0.261 -0.227,0.274 -0.221,0.29 -0.211,0.305 -0.203,0.32 -0.193,0.336 -0.184,0.351 -0.174,0.366 -0.164,0.383 -0.152,0.397 -0.141,0.413 -0.127,0.429 -0.117,0.445 -0.102,0.461 -0.09,0.477 -0.074,0.493 -0.059,0.51 -0.047,0.525 -0.027,0.543 -0.037,1.534 -0.191,0.104 -0.152,0.087 0.047,-0.175 0.055,-0.224 0.049,-0.225 0.045,-0.224 0.041,-0.225 0.035,-0.223 0.033,-0.224 0.027,-0.222 0.023,-0.221 0.02,-0.22 0.014,-0.219 0.012,-0.218 0.008,-0.216 0.004,-0.214 0.002,-0.212 -0.004,-0.21 -0.006,-0.207 -0.01,-0.205 -0.014,-0.201 -0.016,-0.2 -0.02,-0.196 -0.021,-0.193 -0.111,-0.863 -1.023,0.158 -0.359,0.082 -0.346,0.106 -0.332,0.131 -0.32,0.154 -0.305,0.177 -0.289,0.198 -0.275,0.219 -0.26,0.238 -0.244,0.257 -0.23,0.274 -0.213,0.29 -0.201,0.306 -0.186,0.321 -0.172,0.334 -0.158,0.349 -0.146,0.361 -0.133,0.374 -0.121,0.386 -0.107,0.397 -0.098,0.409 -0.086,0.42 -0.076,0.43 -0.061,0.421 -0.016,-0.131 -0.115,-0.879 -1.059,0.163 -0.391,0.09 -0.379,0.116 -0.363,0.143 -0.35,0.169 -0.334,0.193 -0.316,0.217 -0.301,0.239 -0.283,0.262 -0.268,0.281 -0.252,0.3 -0.234,0.318 -0.221,0.335 -0.203,0.353 -0.189,0.368 -0.174,0.383 -0.16,0.397 -0.146,0.412 -0.135,0.425 -0.018,0.069 -0.004,-0.118 -0.008,-0.304 -0.033,-1.688 -1.389,1.147 -0.32,0.278 -0.313,0.285 -0.305,0.292 -0.299,0.299 -0.291,0.307 -0.285,0.312 -0.277,0.318 -0.271,0.324 -0.266,0.33 -0.26,0.336 -0.254,0.342 -0.246,0.347 -0.242,0.351 -0.236,0.357 -0.232,0.361 -0.225,0.366 -0.223,0.371 -0.215,0.375 -0.213,0.379 -0.207,0.384 -0.203,0.387 -0.201,0.391 -0.195,0.395 -0.191,0.397 -0.188,0.401 -0.186,0.404 -0.182,0.406 -0.18,0.41 -0.176,0.412 -0.008,0.021 0.021,-0.165 0.029,-0.308 0.02,-0.309 0.012,-0.31 0.006,-0.31 -0.004,-0.311 -0.008,-0.31 -0.014,-0.311 -0.018,-0.311 -0.021,-0.31 -0.023,-0.311 -0.027,-0.309 -0.029,-0.309 -0.029,-0.308 -0.029,-0.306 -0.029,-0.305 -0.027,-0.303 -0.145,-1.683 -1.311,1.237 -0.301,0.299 -0.293,0.305 -0.285,0.313 -0.277,0.318 -0.271,0.323 -0.264,0.331 -0.256,0.336 -0.25,0.341 -0.242,0.347 -0.236,0.353 -0.23,0.357 -0.225,0.362 -0.217,0.367 -0.213,0.371 -0.207,0.376 -0.201,0.381 -0.197,0.384 -0.191,0.389 -0.186,0.393 -0.182,0.396 -0.178,0.399 -0.174,0.403 -0.168,0.406 -0.166,0.409 -0.16,0.413 -0.158,0.415 -0.154,0.419 -0.152,0.42 -0.148,0.424 -0.145,0.425 -0.379,1.131 1.318,0.289 0.588,0.118 0.064,0.011 -0.139,-0.003 h -0.475 l -0.469,0.01 -0.461,0.018 -0.453,0.027 -0.445,0.037 -0.432,0.046 -0.281,0.036 0.145,-0.234 0.156,-0.29 0.143,-0.295 0.129,-0.3 0.115,-0.304 0.104,-0.308 0.09,-0.312 0.078,-0.314 0.07,-0.316 0.059,-0.318 0.051,-0.32 0.041,-0.321 0.033,-0.323 0.027,-0.323 0.02,-0.324 0.016,-0.323 0.008,-0.323 0.006,-0.324 v -0.322 l -0.002,-0.321 -0.006,-0.318 -0.008,-0.318 -0.01,-0.315 -0.01,-0.313 -0.01,-0.31 -0.049,-1.44 -1.588,0.95 -0.6,0.373 -0.578,0.376 -0.559,0.379 -0.541,0.381 -0.52,0.384 -0.5,0.387 -0.482,0.389 -0.461,0.392 -0.443,0.395 -0.426,0.398 -0.406,0.4 -0.389,0.403 -0.369,0.406 -0.352,0.41 -0.332,0.412 -0.316,0.416 -0.297,0.418 -0.281,0.422 -0.262,0.425 -0.244,0.429 -0.229,0.431 -0.209,0.434 -0.193,0.437 -0.176,0.44 -0.158,0.442 -0.143,0.445 -0.125,0.447 -0.109,0.451 -0.092,0.452 -0.076,0.455 -0.137,1.033 1.186,0.305 0.652,0.139 0.676,0.117 0.695,0.097 0.715,0.078 0.732,0.06 0.746,0.041 0.76,0.024 0.77,0.008 0.777,-0.008 0.783,-0.022 0.787,-0.037 0.789,-0.051 0.787,-0.063 0.785,-0.077 0.777,-0.088 0.771,-0.099 0.762,-0.11 0.748,-0.119 0.736,-0.129 0.717,-0.138 0.699,-0.146 0.678,-0.153 0.654,-0.16 0.627,-0.167 0.602,-0.173 0.57,-0.178 0.541,-0.184 0.506,-0.188 0.469,-0.193 0.434,-0.197 1.41,-0.727 -1.311,-0.84 -0.367,-0.21 -0.385,-0.197 -0.398,-0.183 -0.412,-0.17 -0.426,-0.158 -0.436,-0.146 -0.447,-0.135 -0.457,-0.122 -0.463,-0.112 -0.371,-0.079 0.492,0.003 0.498,-0.01 0.488,-0.021 0.482,-0.033 0.473,-0.044 0.465,-0.056 0.457,-0.066 0.449,-0.077 0.439,-0.088 0.434,-0.099 0.428,-0.109 0.418,-0.119 0.412,-0.13 0.404,-0.139 0.396,-0.148 0.389,-0.158 0.383,-0.167 0.377,-0.176 0.369,-0.185 0.363,-0.193 0.355,-0.201 1.301,-0.78 -1.283,-0.767 -0.328,-0.186 -0.324,-0.175 -0.322,-0.165 -0.32,-0.153 -0.318,-0.143 -0.318,-0.131 -0.314,-0.121 -0.314,-0.109 -0.223,-0.071 0.393,0.056 0.52,0.062 0.512,0.049 0.506,0.036 0.496,0.023 0.49,0.011 0.482,-0.001 0.475,-0.013 0.467,-0.024 0.461,-0.036 0.453,-0.048 0.445,-0.059 0.439,-0.07 0.434,-0.08 0.426,-0.092 0.418,-0.102 0.412,-0.112 0.406,-0.121 0.4,-0.132 0.393,-0.142 0.387,-0.151 0.381,-0.159 0.375,-0.169 0.367,-0.178 1.352,-0.692 -1.23,-0.85 -0.314,-0.207 -0.314,-0.196 -0.311,-0.185 -0.309,-0.175 -0.309,-0.163 -0.309,-0.151 -0.307,-0.142 -0.307,-0.131 -0.305,-0.119 -0.305,-0.109 -0.307,-0.098 -0.305,-0.088 -0.305,-0.077 -0.01,-0.002 0.529,-0.021 0.566,-0.036 0.557,-0.051 0.547,-0.064 0.533,-0.078 0.52,-0.093 0.51,-0.107 0.494,-0.122 0.482,-0.137 0.469,-0.152 0.455,-0.168 0.439,-0.185 0.424,-0.199 0.41,-0.216 0.393,-0.232 0.377,-0.249 0.359,-0.267 0.34,-0.282 0.322,-0.301 0.305,-0.318 0.281,-0.335 0.262,-0.352 0.24,-0.369 0.217,-0.386 0.195,-0.402 0.17,-0.417 0.146,-0.434 0.33,-1.207 -1.018,-0.083 -0.238,-0.012 -0.248,-0.005 -0.26,0.001 -0.27,0.007 -0.268,0.012 0.24,-0.063 0.408,-0.128 0.395,-0.143 0.379,-0.157 0.365,-0.174 0.352,-0.188 0.336,-0.203 0.32,-0.218 0.307,-0.231 0.291,-0.246 0.277,-0.26 0.26,-0.273 0.246,-0.286 0.23,-0.299 0.215,-0.312 0.201,-0.323 0.186,-0.334 0.172,-0.345 0.156,-0.356 0.145,-0.366 0.129,-0.376 0.117,-0.386 0.303,-1.166 -1.004,-0.067 -0.223,-0.002 -0.225,0.01 -0.225,0.021 -0.229,0.03 -0.227,0.039 -0.229,0.049 -0.23,0.056 -0.229,0.064 -0.23,0.07 -0.079,0.037 0,0 z m -153.904,0.96 -0.036,-1.534 -0.029,-0.543 -0.045,-0.525 -0.06,-0.51 -0.074,-0.493 -0.089,-0.477 -0.103,-0.461 -0.116,-0.445 -0.128,-0.429 -0.14,-0.413 -0.152,-0.397 -0.164,-0.383 -0.174,-0.366 -0.184,-0.351 -0.194,-0.336 -0.203,-0.32 -0.211,-0.305 -0.219,-0.29 -0.227,-0.274 -0.234,-0.261 -0.24,-0.245 -0.245,-0.23 -0.25,-0.216 -0.255,-0.201 -0.259,-0.187 -0.262,-0.172 -0.265,-0.158 -0.268,-0.145 -0.269,-0.13 -0.27,-0.117 -0.271,-0.103 -1.071,-0.354 -0.09,1.252 -0.016,0.405 0,0.402 0.013,0.4 0.027,0.398 0.041,0.394 0.055,0.391 0.069,0.386 0.083,0.382 0.097,0.377 0.11,0.372 0.124,0.365 0.138,0.36 0.151,0.354 0.165,0.347 0.178,0.339 0.192,0.332 0.205,0.323 0.219,0.315 0.231,0.306 0.245,0.297 0.258,0.287 0.271,0.276 0.284,0.266 0.296,0.255 0.309,0.244 0.321,0.231 0.333,0.219 0.228,0.136 -0.088,-0.029 -0.23,-0.07 -0.229,-0.064 -0.229,-0.056 -0.229,-0.049 -0.228,-0.039 -0.227,-0.03 -0.226,-0.021 -0.224,-0.01 -0.223,0.002 -1.005,0.067 0.304,1.166 0.116,0.386 0.129,0.376 0.143,0.366 0.157,0.356 0.172,0.345 0.186,0.334 0.2,0.323 0.216,0.312 0.23,0.299 0.246,0.286 0.261,0.273 0.277,0.26 0.291,0.246 0.306,0.231 0.321,0.218 0.336,0.203 0.351,0.188 0.365,0.174 0.38,0.157 0.395,0.143 0.409,0.128 0.24,0.063 -0.268,-0.012 -0.269,-0.007 -0.259,-0.001 -0.249,0.005 -0.238,0.012 -1.018,0.083 0.33,1.207 0.147,0.434 0.171,0.417 0.194,0.402 0.218,0.386 0.24,0.369 0.262,0.352 0.282,0.335 0.303,0.318 0.322,0.301 0.341,0.282 0.359,0.267 0.376,0.249 0.393,0.232 0.409,0.216 0.424,0.199 0.44,0.185 0.455,0.168 0.469,0.152 0.481,0.137 0.496,0.122 0.508,0.107 0.521,0.093 0.534,0.078 0.545,0.064 0.557,0.051 0.568,0.036 0.53,0.021 -0.01,0.002 -0.306,0.077 -0.305,0.088 -0.305,0.098 -0.306,0.109 -0.306,0.119 -0.306,0.131 -0.307,0.141 -0.308,0.152 -0.308,0.163 -0.31,0.175 -0.311,0.185 -0.313,0.196 -0.314,0.208 -1.229,0.849 1.349,0.692 0.369,0.178 0.375,0.169 0.381,0.159 0.386,0.151 0.394,0.142 0.4,0.132 0.405,0.121 0.413,0.112 0.419,0.102 0.426,0.092 0.432,0.08 0.439,0.07 0.446,0.059 0.454,0.048 0.46,0.036 0.467,0.024 0.475,0.013 0.482,10e-4 0.49,-0.011 0.497,-0.023 0.505,-0.036 0.513,-0.049 0.52,-0.062 0.392,-0.056 -0.223,0.071 -0.314,0.109 -0.316,0.121 -0.316,0.131 -0.319,0.143 -0.32,0.153 -0.323,0.165 -0.325,0.175 -0.328,0.186 -1.282,0.767 1.3,0.779 0.356,0.202 0.362,0.193 0.369,0.185 0.376,0.176 0.383,0.167 0.39,0.158 0.397,0.148 0.404,0.139 0.412,0.13 0.418,0.119 0.426,0.109 0.434,0.099 0.441,0.088 0.449,0.077 0.458,0.066 0.464,0.056 0.473,0.044 0.481,0.033 0.489,0.021 0.497,0.01 0.493,-0.003 -0.371,0.079 -0.464,0.112 -0.456,0.122 -0.447,0.135 -0.437,0.146 -0.425,0.158 -0.413,0.17 -0.399,0.183 -0.384,0.197 -0.367,0.21 -1.309,0.84 1.408,0.726 0.433,0.198 0.47,0.193 0.506,0.188 0.539,0.184 0.571,0.178 0.601,0.173 0.628,0.167 0.654,0.16 0.678,0.153 0.699,0.146 0.718,0.138 0.734,0.129 0.75,0.119 0.761,0.11 0.771,0.099 0.778,0.088 0.785,0.077 0.787,0.063 0.789,0.051 0.787,0.037 0.783,0.022 0.778,0.008 0.77,-0.008 0.759,-0.024 0.747,-0.041 0.732,-0.06 0.715,-0.078 0.696,-0.097 0.675,-0.117 0.652,-0.139 1.186,-0.305 -0.137,-1.033 -0.076,-0.455 -0.093,-0.452 -0.108,-0.451 -0.125,-0.447 -0.142,-0.445 -0.159,-0.442 -0.176,-0.44 -0.193,-0.437 -0.21,-0.434 -0.228,-0.431 -0.245,-0.428 -0.262,-0.426 -0.28,-0.422 -0.297,-0.418 -0.315,-0.416 -0.333,-0.412 -0.352,-0.41 -0.37,-0.406 -0.388,-0.403 -0.406,-0.4 -0.425,-0.398 -0.444,-0.395 -0.462,-0.392 -0.482,-0.39 -0.5,-0.386 -0.52,-0.384 -0.539,-0.381 -0.56,-0.379 -0.579,-0.375 -0.599,-0.374 -1.585,-0.95 -0.051,1.439 -0.011,0.311 -0.01,0.313 -0.009,0.315 -0.008,0.317 -0.006,0.319 -0.002,0.321 0.001,0.322 0.004,0.323 0.01,0.324 0.014,0.323 0.021,0.324 0.026,0.323 0.034,0.323 0.041,0.321 0.05,0.32 0.059,0.318 0.069,0.316 0.079,0.314 0.091,0.312 0.102,0.308 0.116,0.304 0.128,0.301 0.143,0.294 0.157,0.29 0.143,0.234 -0.28,-0.036 -0.433,-0.046 -0.443,-0.037 -0.454,-0.027 -0.461,-0.018 -0.469,-0.01 h -0.475 l -0.138,0.003 0.063,-0.011 0.588,-0.118 1.319,-0.289 -0.379,-1.131 -0.146,-0.425 -0.148,-0.424 -0.151,-0.42 -0.154,-0.419 -0.158,-0.415 -0.162,-0.412 -0.165,-0.41 -0.17,-0.406 -0.173,-0.403 -0.177,-0.399 -0.182,-0.396 -0.187,-0.393 -0.191,-0.388 -0.196,-0.385 -0.201,-0.381 -0.207,-0.376 -0.212,-0.371 -0.218,-0.367 -0.224,-0.362 -0.23,-0.357 -0.236,-0.352 -0.243,-0.348 -0.25,-0.341 -0.257,-0.337 -0.264,-0.33 -0.267,-0.319 -0.278,-0.318 -0.286,-0.313 -0.293,-0.305 -0.301,-0.299 -1.308,-1.236 -0.147,1.682 -0.027,0.303 -0.029,0.305 -0.03,0.306 -0.029,0.308 -0.029,0.309 -0.027,0.309 -0.024,0.31 -0.021,0.311 -0.018,0.311 -0.014,0.311 -0.008,0.31 -0.002,0.311 0.005,0.31 0.012,0.31 0.021,0.309 0.029,0.308 0.021,0.164 -0.008,-0.021 -0.176,-0.412 -0.179,-0.41 -0.182,-0.406 -0.185,-0.404 -0.188,-0.401 -0.191,-0.397 -0.196,-0.395 -0.199,-0.391 -0.204,-0.387 -0.208,-0.384 -0.212,-0.379 -0.216,-0.375 -0.221,-0.371 -0.227,-0.366 -0.231,-0.361 -0.236,-0.357 -0.242,-0.351 -0.248,-0.347 -0.253,-0.342 -0.259,-0.336 -0.265,-0.33 -0.272,-0.324 -0.278,-0.318 -0.284,-0.312 -0.292,-0.306 -0.298,-0.3 -0.306,-0.292 -0.313,-0.285 -0.32,-0.278 -1.386,-1.147 -0.036,1.688 -0.008,0.305 -0.003,0.118 -0.019,-0.069 -0.133,-0.425 -0.146,-0.411 -0.16,-0.398 -0.175,-0.383 -0.189,-0.368 -0.204,-0.353 -0.219,-0.335 -0.235,-0.318 -0.251,-0.3 -0.268,-0.281 -0.284,-0.262 -0.301,-0.239 -0.317,-0.217 -0.333,-0.193 -0.349,-0.169 -0.364,-0.143 -0.378,-0.116 -0.392,-0.09 -1.056,-0.163 -0.117,0.879 -0.016,0.13 -0.061,-0.42 -0.074,-0.43 -0.086,-0.42 -0.098,-0.409 -0.109,-0.397 -0.121,-0.386 -0.133,-0.374 -0.146,-0.361 -0.161,-0.357 -0.172,-0.334 -0.186,-0.321 -0.2,-0.306 -0.214,-0.29 -0.228,-0.274 -0.245,-0.257 -0.26,-0.238 -0.275,-0.219 -0.29,-0.198 -0.305,-0.177 -0.319,-0.154 -0.333,-0.131 -0.346,-0.106 -0.358,-0.082 -1.024,-0.158 -0.111,0.863 -0.022,0.193 -0.019,0.196 -0.016,0.2 -0.013,0.201 -0.01,0.205 -0.006,0.207 -0.003,0.21 10e-4,0.212 0.004,0.214 0.008,0.216 0.011,0.218 0.016,0.219 0.019,0.22 0.023,0.221 0.027,0.222 0.032,0.224 0.036,0.223 0.041,0.225 0.045,0.224 0.05,0.225 0.054,0.224 0.046,0.175 -0.153,-0.087 -0.191,-0.108 0,0 z m 3.812,5.974 0.472,0.004 0.544,-0.011 1.166,-0.056 0.016,-0.452 0.018,0.089 0.051,0.233 0.057,0.233 0.063,0.233 0.068,0.233 0.051,0.163 -0.124,-0.045 -0.278,-0.092 -0.285,-0.089 -0.293,-0.084 -0.299,-0.081 -0.305,-0.077 -0.309,-0.072 -0.313,-0.069 -0.3,-0.06 0,0 z m 8.562,6.655 0.027,-0.805 0.062,0.144 0.137,0.284 0.153,0.279 0.092,0.15 -0.169,-0.022 -0.302,-0.03 0,0 z m 5.768,4.621 0.13,-0.029 0.57,-0.143 0.58,-0.155 1.05,-0.305 0.027,0.079 0.118,0.293 0.134,0.289 0.083,0.155 -0.168,-0.033 -0.309,-0.053 -0.309,-0.044 -0.309,-0.034 -0.308,-0.024 -0.308,-0.016 -0.309,-0.005 -0.308,0.005 -0.308,0.015 -0.056,0.005 0,0 z m 19.502,1.507 4.701,9.819 -11.545,1.976 1.493,1.203 0.37,0.271 0.388,0.26 0.406,0.247 0.425,0.235 0.445,0.223 0.464,0.21 0.483,0.196 0.503,0.184 0.524,0.171 0.544,0.157 0.565,0.144 0.587,0.13 0.609,0.115 0.631,0.102 0.654,0.088 0.677,0.073 0.701,0.059 0.725,0.043 0.749,0.029 0.774,0.014 0.799,-0.002 0.825,-0.018 0.852,-0.033 0.877,-0.049 0.905,-0.065 0.933,-0.082 0.961,-0.099 0.989,-0.115 1.018,-0.133 1.047,-0.149 1.796,-0.279 -0.35,-1.403 -0.205,-0.69 -0.233,-0.671 -0.26,-0.652 -0.287,-0.634 -0.311,-0.614 -0.335,-0.596 -0.359,-0.578 -0.381,-0.559 -0.402,-0.541 -0.422,-0.521 -0.442,-0.504 -0.46,-0.485 -0.477,-0.468 -0.494,-0.451 -0.509,-0.433 -0.524,-0.415 -0.538,-0.399 -0.55,-0.382 -0.562,-0.364 -0.573,-0.349 -0.583,-0.333 -0.592,-0.316 -0.601,-0.301 -0.608,-0.285 -0.615,-0.269 -0.621,-0.255 -0.625,-0.239 -0.63,-0.225 -0.633,-0.21 -0.635,-0.195 -2.058,-0.588 0,0 z m 108.08,-13.299 0.016,0.454 1.166,0.056 0.545,0.011 0.471,-0.004 -0.303,0.062 -0.311,0.069 -0.309,0.072 -0.305,0.077 -0.301,0.081 -0.291,0.084 -0.287,0.089 -0.277,0.092 -0.123,0.045 0.051,-0.163 0.068,-0.233 0.063,-0.233 0.059,-0.233 0.051,-0.233 0.017,-0.093 0,0 z m -6.391,6.366 0.027,0.805 -0.303,0.031 -0.17,0.022 0.094,-0.149 0.152,-0.28 0.137,-0.284 0.063,-0.145 0,0 z m -8.072,4.794 1.051,0.305 0.58,0.155 0.57,0.143 0.129,0.029 -0.057,-0.005 -0.309,-0.015 -0.309,-0.005 -0.307,0.005 -0.309,0.016 -0.309,0.024 -0.309,0.034 -0.309,0.044 -0.309,0.053 -0.168,0.033 0.082,-0.155 0.135,-0.289 0.117,-0.293 0.031,-0.079 0,0 z m -17.172,2.14 -2.055,0.585 -0.637,0.195 -0.633,0.21 -0.629,0.225 -0.625,0.239 -0.621,0.255 -0.615,0.27 -0.607,0.284 -0.602,0.301 -0.592,0.316 -0.584,0.333 -0.572,0.349 -0.563,0.364 -0.551,0.382 -0.537,0.399 -0.523,0.415 -0.51,0.433 -0.494,0.451 -0.477,0.468 -0.461,0.485 -0.441,0.504 -0.424,0.521 -0.402,0.541 -0.381,0.559 -0.357,0.577 -0.336,0.597 -0.313,0.614 -0.285,0.634 -0.26,0.652 -0.234,0.671 -0.205,0.69 -0.35,1.403 1.797,0.279 1.047,0.149 1.018,0.133 0.99,0.115 0.959,0.099 0.934,0.082 0.904,0.065 0.879,0.049 0.852,0.033 0.824,0.018 0.799,0.002 0.773,-0.014 0.75,-0.029 0.725,-0.043 0.699,-0.059 0.678,-0.073 0.654,-0.088 0.631,-0.102 0.609,-0.115 0.586,-0.13 0.566,-0.144 0.545,-0.157 0.523,-0.171 0.502,-0.184 0.484,-0.196 0.465,-0.21 0.443,-0.223 0.426,-0.235 0.406,-0.247 0.389,-0.26 0.369,-0.271 1.494,-1.203 -11.545,-1.976 4.701,-9.816 0,0 z m -39.918,22.784 -0.22,-0.175 -0.221,-0.175 -0.222,-0.174 -0.223,-0.173 -0.224,-0.172 -0.225,-0.171 -0.227,-0.17 -0.228,-0.169 -0.229,-0.169 -0.229,-0.167 -0.23,-0.167 -0.232,-0.166 -0.233,-0.164 -0.234,-0.164 -0.236,-0.163 -0.236,-0.162 -0.238,-0.16 -0.239,-0.161 -0.24,-0.159 -0.241,-0.158 -0.242,-0.157 -0.2,-0.129 -0.007,-0.008 -0.108,-0.138 -0.157,-0.21 -0.199,-0.27 -0.237,-0.324 -0.273,-0.372 -0.307,-0.417 -0.339,-0.456 -0.369,-0.491 -0.397,-0.522 -0.423,-0.55 -0.448,-0.571 -0.47,-0.59 -0.492,-0.604 -0.511,-0.614 -0.529,-0.619 -0.545,-0.622 -0.559,-0.618 -0.572,-0.612 -0.583,-0.601 -0.592,-0.586 -0.6,-0.566 -0.607,-0.544 -0.613,-0.517 -0.616,-0.484 -0.619,-0.449 -0.621,-0.409 -0.623,-0.364 -0.624,-0.316 -0.624,-0.262 -1.944,-0.633 4.501,11.356 -12.778,1.077 1.618,1.31 0.354,0.263 0.374,0.257 0.392,0.247 0.411,0.239 0.43,0.229 0.45,0.221 0.469,0.211 0.489,0.2 0.508,0.19 0.528,0.18 0.549,0.168 0.569,0.156 0.59,0.146 0.61,0.132 0.632,0.12 0.652,0.107 0.674,0.094 0.696,0.08 0.718,0.066 0.74,0.052 0.763,0.037 0.785,0.021 0.808,0.006 0.831,-0.009 0.854,-0.026 0.877,-0.042 0.902,-0.061 0.925,-0.076 0.95,-0.096 0.974,-0.112 0.661,-0.088 0.067,0.064 0.105,0.102 0.118,0.112 0.132,0.127 0.146,0.14 0.158,0.151 0.171,0.163 0.184,0.175 0.195,0.186 0.207,0.196 0.217,0.207 0.228,0.217 0.237,0.227 0.247,0.236 0.28,0.268 0.513,0.492 0.281,0.269 0.307,0.296 0.574,0.555 0.306,0.297 0.311,0.302 0.316,0.308 0.32,0.313 0.167,0.165 -0.102,0.101 -0.291,0.293 -0.288,0.295 -0.287,0.296 -0.284,0.298 -0.282,0.301 -0.28,0.301 -0.278,0.304 -0.275,0.305 -0.274,0.307 -0.271,0.308 -0.269,0.311 -0.267,0.312 -0.265,0.313 -0.263,0.314 -0.261,0.316 -0.259,0.318 -0.257,0.319 -0.255,0.321 -0.253,0.322 -0.25,0.324 -0.25,0.325 -0.247,0.327 -0.246,0.328 -0.244,0.33 -0.241,0.332 -0.239,0.333 -0.238,0.334 -0.236,0.336 -0.234,0.337 -0.404,0.59 0.151,0.57 0.084,0.272 0.093,0.258 0.102,0.244 0.111,0.23 0.122,0.217 0.134,0.203 0.147,0.188 0.16,0.173 0.174,0.156 0.188,0.137 0.201,0.115 0.213,0.092 0.222,0.067 0.228,0.043 0.665,0.05 0.274,-0.605 0.092,-0.182 0.11,-0.197 0.127,-0.213 0.145,-0.227 0.16,-0.239 0.175,-0.251 0.19,-0.262 0.204,-0.272 0.217,-0.282 0.229,-0.291 0.242,-0.3 0.253,-0.307 0.264,-0.314 0.274,-0.322 0.284,-0.328 0.292,-0.333 0.302,-0.339 0.309,-0.345 0.317,-0.348 0.323,-0.353 0.329,-0.355 0.335,-0.358 0.34,-0.36 0.344,-0.363 0.348,-0.364 0.352,-0.365 0.354,-0.366 0.356,-0.366 0.359,-0.365 0.245,-0.249 0.245,0.249 0.358,0.365 0.356,0.366 0.354,0.366 0.352,0.365 0.349,0.364 0.344,0.363 0.34,0.36 0.334,0.358 0.33,0.356 0.324,0.352 0.316,0.348 0.309,0.345 0.301,0.339 0.293,0.333 0.283,0.328 0.275,0.322 0.264,0.314 0.252,0.307 0.242,0.3 0.23,0.291 0.217,0.282 0.203,0.272 0.189,0.262 0.176,0.251 0.16,0.239 0.145,0.227 0.127,0.213 0.111,0.197 0.092,0.182 0.275,0.606 0.664,-0.051 0.229,-0.043 0.221,-0.067 0.215,-0.092 0.201,-0.116 0.188,-0.136 0.174,-0.155 0.16,-0.174 0.146,-0.188 0.135,-0.203 0.121,-0.217 0.111,-0.23 0.102,-0.244 0.094,-0.258 0.084,-0.271 0.152,-0.57 -0.406,-0.591 -0.234,-0.337 -0.234,-0.336 -0.238,-0.334 -0.24,-0.333 -0.24,-0.332 -0.244,-0.33 -0.244,-0.328 -0.248,-0.327 -0.248,-0.325 -0.252,-0.324 -0.252,-0.322 -0.256,-0.321 -0.256,-0.319 -0.26,-0.317 -0.262,-0.317 -0.262,-0.314 -0.266,-0.313 -0.268,-0.312 -0.268,-0.311 -0.271,-0.308 -0.273,-0.307 -0.275,-0.305 -0.277,-0.304 -0.281,-0.301 -0.281,-0.301 -0.283,-0.297 -0.287,-0.297 -0.287,-0.295 -0.291,-0.293 -0.102,-0.101 0.168,-0.165 0.32,-0.313 0.316,-0.308 0.311,-0.302 0.305,-0.297 0.301,-0.29 0.293,-0.284 0.287,-0.276 0.281,-0.269 0.271,-0.262 0.266,-0.253 0.256,-0.245 0.246,-0.236 0.307,-0.291 0.377,-0.359 0.205,-0.196 0.195,-0.186 0.184,-0.175 0.172,-0.163 0.158,-0.151 0.146,-0.139 0.131,-0.127 0.119,-0.114 0.104,-0.101 0.068,-0.064 0.66,0.088 0.975,0.112 0.949,0.096 0.926,0.076 0.9,0.061 0.879,0.042 0.854,0.026 0.832,0.009 0.807,-0.006 0.785,-0.021 0.762,-0.037 0.74,-0.052 0.719,-0.066 0.695,-0.08 0.674,-0.094 0.654,-0.107 0.631,-0.12 0.609,-0.132 0.59,-0.146 0.57,-0.156 0.549,-0.168 0.527,-0.18 0.51,-0.19 0.488,-0.2 0.469,-0.211 0.449,-0.221 0.43,-0.229 0.412,-0.239 0.391,-0.247 0.375,-0.256 0.354,-0.264 1.619,-1.31 -12.779,-1.077 4.502,-11.355 -1.943,0.632 -0.625,0.262 -0.623,0.316 -0.623,0.364 -0.621,0.409 -0.619,0.449 -0.617,0.484 -0.611,0.517 -0.607,0.543 -0.6,0.567 -0.594,0.586 -0.582,0.601 -0.572,0.612 -0.559,0.619 -0.545,0.621 -0.527,0.619 -0.512,0.614 -0.492,0.604 -0.471,0.59 -0.447,0.571 -0.424,0.55 -0.396,0.522 -0.369,0.491 -0.338,0.456 -0.307,0.417 -0.273,0.372 -0.236,0.324 -0.199,0.27 -0.158,0.21 -0.107,0.138 -0.008,0.009 -0.199,0.128 -0.242,0.157 -0.24,0.158 -0.24,0.159 -0.238,0.161 -0.238,0.16 -0.236,0.162 -0.236,0.163 -0.232,0.164 -0.234,0.165 -0.23,0.166 -0.23,0.166 -0.23,0.167 -0.229,0.169 -0.227,0.169 -0.227,0.17 -0.227,0.171 -0.223,0.172 -0.223,0.173 -0.223,0.174 -0.221,0.175 -0.219,0.175 -0.22,0.177 -0.217,0.177 -0.216,0.178 -0.216,0.179 -0.214,0.18 -0.213,0.181 -0.212,0.182 -0.188,0.162 -0.188,-0.162 -0.212,-0.182 -0.214,-0.181 -0.214,-0.18 -0.215,-0.179 -0.217,-0.178 -0.218,-0.177 -0.214,-0.179 0,0 z"
   clip-rule="evenodd" /><path
   style="fill:#00a651;fill-rule:evenodd"
   inkscape:connector-curvature="0"
   id="path17"
   d="m 188.539,238.173 c 3.844,-1.579 5.779,-5.39 5.41,-9.497 -2.58,0.789 -5.357,3.652 -5.41,9.497 l 0,0 z m -153.116,0 c -3.844,-1.579 -5.779,-5.39 -5.41,-9.497 2.58,0.789 5.358,3.652 5.41,9.497 l 0,0 z m 1.397,-3.609 c -0.262,1.89 -0.086,4.391 1.016,6.475 -1.37,-1.059 -4.289,-2.731 -6.178,-2.543 0.972,4.025 3.933,6.272 9.803,5.921 0.229,-5.303 -1.125,-9.438 -4.641,-9.853 l 0,0 z m 5.871,5.783 c -0.291,2.095 -0.172,4.521 1.05,6.831 -1.518,-1.174 -6.254,-1.989 -8.348,-1.78 1.077,4.462 5.936,6.26 12.443,5.87 0.254,-5.877 -1.247,-10.46 -5.145,-10.921 l 0,0 z m 5.889,3.756 c 3.397,2.737 5.561,6.732 7.353,11.151 -6.196,1.856 -10.782,1.276 -14.467,-0.67 3.269,-2.31 6.023,-2.65 9.367,-1.671 -2.762,-2.147 -2.309,-5.543 -2.253,-8.81 l 0,0 z m 8.5,4.744 c 3.208,2.956 5.104,7.085 6.6,11.613 -6.305,1.441 -10.843,0.56 -14.391,-1.625 3.414,-2.089 6.186,-2.247 9.458,-1.049 -2.614,-2.324 -1.938,-5.683 -1.667,-8.939 l 0,0 z m 8.088,4.617 c 6.607,3.882 9.69,8.11 10.221,12.757 -6.227,1.749 -17.614,-0.094 -21.265,-2.102 3.308,-2.254 10.115,-2.548 13.442,-1.512 -2.724,-2.193 -2.509,-5.877 -2.398,-9.143 l 0,0 z m 9.833,5.485 4.442,9.279 -10.958,1.876 c 3.41,2.871 9.752,4.039 21.323,2.172 -1.653,-7.346 -8.152,-11.508 -14.807,-13.327 l 0,0 z m 112.142,-24.385 c 0.262,1.89 0.086,4.391 -1.018,6.475 1.371,-1.059 4.289,-2.731 6.18,-2.543 -0.973,4.025 -3.934,6.272 -9.805,5.921 -0.229,-5.303 1.127,-9.438 4.643,-9.853 l 0,0 z m -5.872,5.783 c 0.289,2.095 0.172,4.521 -1.051,6.831 1.518,-1.174 6.254,-1.989 8.348,-1.78 -1.076,4.462 -5.936,6.26 -12.441,5.87 -0.256,-5.877 1.246,-10.46 5.144,-10.921 l 0,0 z m -5.888,3.756 c -3.396,2.737 -5.563,6.732 -7.354,11.151 6.197,1.856 10.783,1.276 14.467,-0.67 -3.268,-2.31 -6.023,-2.65 -9.367,-1.671 2.762,-2.147 2.309,-5.543 2.254,-8.81 l 0,0 z m -8.5,4.744 c -3.209,2.956 -5.105,7.085 -6.602,11.613 6.307,1.441 10.844,0.56 14.393,-1.625 -3.414,-2.089 -6.186,-2.247 -9.457,-1.049 2.613,-2.324 1.937,-5.683 1.666,-8.939 l 0,0 z m -8.09,4.617 c -6.607,3.882 -9.689,8.11 -10.221,12.757 6.227,1.749 17.615,-0.094 21.266,-2.102 -3.309,-2.254 -10.115,-2.548 -13.441,-1.512 2.722,-2.193 2.507,-5.877 2.396,-9.143 l 0,0 z m -9.832,5.485 -4.441,9.279 10.957,1.876 c -3.41,2.871 -9.752,4.039 -21.322,2.172 1.652,-7.346 8.152,-11.508 14.806,-13.327 l 0,0 z m -29.834,18.646 c -2.572,1.645 -4.945,3.447 -7.146,5.392 -2.2,-1.944 -4.574,-3.747 -7.146,-5.392 -0.162,0.119 -8.07,-12.165 -14.059,-13.801 l 4.31,10.872 -12.018,1.013 c 3.263,2.747 9.636,4.481 20.316,2.99 -0.033,0.023 2.976,2.807 6.494,6.27 -3.124,3.044 -5.871,6.39 -8.315,9.977 0.354,1.438 0.972,2.168 1.855,2.19 0.842,-1.999 4.712,-6.19 8.563,-10.072 3.851,3.882 7.72,8.073 8.562,10.072 0.885,-0.022 1.504,-0.753 1.857,-2.19 -2.445,-3.588 -5.191,-6.933 -8.316,-9.977 3.52,-3.463 6.527,-6.246 6.494,-6.27 10.68,1.491 17.053,-0.243 20.316,-2.99 l -12.018,-1.013 4.309,-10.872 c -5.988,1.636 -13.896,13.92 -14.058,13.801 l 0,0 z"
   clip-rule="evenodd" /><path
   style="fill-rule:evenodd"
   d="m 125.686,198.078 0.406,-0.136 0.404,-0.139 0.402,-0.143 0.403,-0.147 0.398,-0.151 0.397,-0.154 0.394,-0.158 0.395,-0.161 0.39,-0.166 0.391,-0.169 0.387,-0.173 0.385,-0.176 0.384,-0.181 0.381,-0.183 0.379,-0.187 0.377,-0.19 0.375,-0.194 0.375,-0.199 0.369,-0.201 0.369,-0.204 0.367,-0.208 0.299,-0.174 3.051,5.162 6.17,10.438 7.596,-0.322 -11.352,-19.046 0.178,-0.144 0.178,-0.146 0.179,-0.149 0.18,-0.149 0.027,-0.025 11.698,19.612 2.125,-0.09 11.226,-0.479 0.477,-11.225 0.095,-2.207 -19.658,-11.723 0.045,-0.056 0.145,-0.181 0.142,-0.182 0.143,-0.184 0.117,-0.153 19.111,11.393 0.321,-7.517 -10.438,-6.169 -5.4,-3.191 0.174,-0.318 0.197,-0.367 0.195,-0.37 0.192,-0.372 0.185,-0.374 0.186,-0.377 0.179,-0.378 0.176,-0.38 0.174,-0.382 0.17,-0.384 0.166,-0.386 0.162,-0.388 0.16,-0.389 0.154,-0.392 0.153,-0.394 0.148,-0.395 0.145,-0.397 0.14,-0.398 0.137,-0.401 0.133,-0.402 0.129,-0.404 0.127,-0.406 0.121,-0.408 0.117,-0.408 0.115,-0.41 0.096,-0.36 6.189,1.591 11.745,3.018 5.142,-5.6 -21.881,-5.538 0.024,-0.221 0.021,-0.231 0.024,-0.231 0.019,-0.232 0.004,-0.044 22.526,5.696 1.439,-1.568 7.6,-8.276 -7.6,-8.275 -1.494,-1.627 -22.557,5.702 -0.006,-0.069 -0.025,-0.231 -0.025,-0.23 -0.028,-0.229 -0.023,-0.195 21.927,-5.549 -5.087,-5.541 -18.151,4.666 -0.105,-0.37 -0.121,-0.405 -0.125,-0.403 -0.129,-0.402 -0.131,-0.401 -0.137,-0.399 -0.139,-0.396 -0.144,-0.395 -0.147,-0.394 -0.15,-0.391 -0.154,-0.39 -0.158,-0.388 -0.161,-0.386 -0.166,-0.385 -0.168,-0.381 -0.171,-0.38 -0.174,-0.379 -0.18,-0.377 -0.182,-0.374 -0.185,-0.372 -0.19,-0.371 -0.193,-0.368 -0.195,-0.367 -0.199,-0.364 -0.204,-0.363 -0.162,-0.285 5.756,-3.402 10.438,-6.169 -0.325,-7.597 -19.599,11.685 -0.139,-0.173 -0.146,-0.18 -0.147,-0.181 -0.148,-0.179 -0.03,-0.033 20.165,-12.026 -0.09,-2.126 -0.479,-11.225 -11.226,-0.478 -2.207,-0.094 -12.006,20.132 -0.039,-0.032 -0.18,-0.148 -0.18,-0.146 -0.181,-0.145 -0.168,-0.134 11.668,-19.573 -7.516,-0.32 -6.17,10.438 -3.42,5.788 -0.289,-0.164 -0.363,-0.2 -0.363,-0.198 -0.368,-0.195 -0.369,-0.19 -0.371,-0.188 -0.371,-0.185 -0.375,-0.18 -0.377,-0.177 -0.379,-0.174 -0.379,-0.171 -0.383,-0.166 -0.384,-0.164 -0.387,-0.159 -0.387,-0.157 -0.39,-0.152 -0.391,-0.149 -0.395,-0.145 -0.394,-0.142 -0.397,-0.138 -0.398,-0.135 -0.402,-0.13 -0.401,-0.127 -0.404,-0.123 -0.404,-0.12 -0.364,-0.103 1.664,-6.478 3.018,-11.743 -5.6,-5.143 -5.582,22.065 -0.201,-0.025 -0.23,-0.026 -0.231,-0.025 -0.23,-0.023 -0.065,-0.007 5.739,-22.695 -1.567,-1.439 -8.276,-7.601 -8.276,7.601 -1.627,1.494 5.711,22.587 -0.049,0.005 -0.232,0.021 -0.231,0.023 -0.23,0.024 -0.216,0.023 -5.554,-21.948 -5.54,5.089 3.018,11.743 1.623,6.315 -0.357,0.096 -0.409,0.114 -0.408,0.118 -0.405,0.122 -0.406,0.127 -0.402,0.129 -0.401,0.134 -0.398,0.136 -0.398,0.141 -0.395,0.145 -0.394,0.148 -0.392,0.151 -0.39,0.156 -0.389,0.159 -0.387,0.163 -0.384,0.166 -0.383,0.17 -0.381,0.173 -0.378,0.177 -0.377,0.18 -0.375,0.184 -0.373,0.187 -0.371,0.19 -0.368,0.194 -0.367,0.198 -0.312,0.171 -3.264,-5.522 -6.169,-10.438 -7.516,0.32 11.468,19.238 -0.155,0.119 -0.182,0.142 -0.183,0.143 -0.18,0.145 -0.055,0.044 -11.799,-19.785 -2.207,0.094 -11.226,0.478 -0.478,11.225 -0.09,2.126 19.739,11.773 -0.023,0.028 -0.149,0.178 -0.149,0.179 -0.147,0.18 -0.145,0.178 -19.173,-11.429 -0.323,7.597 10.438,6.169 5.285,3.123 -0.171,0.295 -0.208,0.365 -0.204,0.367 -0.201,0.37 -0.198,0.372 -0.194,0.374 -0.19,0.376 -0.187,0.378 -0.184,0.38 -0.179,0.382 -0.177,0.384 -0.172,0.386 -0.17,0.388 -0.165,0.391 -0.162,0.391 -0.158,0.394 -0.155,0.396 -0.151,0.397 -0.146,0.4 -0.143,0.401 -0.141,0.403 -0.135,0.404 -0.132,0.407 -0.128,0.408 -0.124,0.409 -0.115,0.395 -17.559,-4.514 -5.089,5.541 21.317,5.394 -0.025,0.188 -0.028,0.23 -0.027,0.229 -0.026,0.231 -0.008,0.076 -21.939,-5.547 -1.494,1.627 -7.6,8.275 7.6,8.276 1.439,1.568 21.906,-5.538 0.004,0.048 0.021,0.232 0.023,0.231 0.024,0.231 0.023,0.216 -21.265,5.381 5.144,5.6 17.341,-4.458 0.104,0.386 0.118,0.415 0.121,0.413 0.125,0.412 0.129,0.41 0.132,0.408 0.138,0.407 0.14,0.405 0.144,0.403 0.149,0.402 0.151,0.398 0.156,0.398 0.16,0.396 0.163,0.394 0.167,0.391 0.17,0.391 0.174,0.388 0.178,0.385 0.181,0.384 0.185,0.382 0.189,0.38 0.192,0.378 0.196,0.375 0.199,0.373 0.202,0.371 0.182,0.326 -4.922,2.909 -10.438,6.169 0.32,7.517 18.678,-11.135 0.127,0.163 0.143,0.181 0.145,0.181 0.146,0.181 0.038,0.046 -19.231,11.469 0.094,2.207 0.478,11.225 11.226,0.479 2.126,0.09 11.486,-19.26 0.04,0.033 0.18,0.148 0.181,0.145 0.18,0.146 0.168,0.131 -11.149,18.704 7.597,0.322 6.169,-10.438 2.889,-4.886 0.323,0.181 0.371,0.204 0.374,0.201 0.374,0.197 0.378,0.193 0.38,0.191 0.382,0.185 0.384,0.184 0.385,0.178 0.388,0.176 0.39,0.172 0.391,0.168 0.394,0.165 0.396,0.161 0.398,0.156 0.399,0.154 0.402,0.149 0.403,0.146 0.405,0.142 0.406,0.138 0.409,0.134 0.41,0.131 0.412,0.126 0.414,0.122 0.415,0.119 0.39,0.106 -4.439,17.272 5.54,5.089 5.347,-21.129 0.21,0.023 0.23,0.025 0.232,0.023 0.231,0.022 0.054,0.005 -5.503,21.766 1.627,1.494 8.276,7.601 8.276,-7.601 1.567,-1.438 -5.53,-21.874 0.069,-0.007 0.232,-0.026 0.231,-0.026 0.228,-0.027 0.193,-0.024 5.377,21.247 5.6,-5.143 -3.018,-11.743 -1.462,-5.692 0.398,-0.115 0.41,-0.124 0,0 0.41,-0.127 z"
   id="polygon19" /><path
   style="fill:#fff200;fill-rule:evenodd"
   inkscape:connector-curvature="0"
   id="path21"
   d="m 164.971,187.637 -9.766,-5.771 -6.508,-3.846 c 2.199,-3.709 3.855,-7.779 4.854,-12.101 l 7.465,1.919 10.986,2.824 3.135,-3.414 -20.873,-5.281 c 0.158,-1.183 0.266,-2.381 0.326,-3.592 l 23.287,5.888 0.914,-0.994 6.789,-7.393 -6.789,-7.393 -0.969,-1.054 -23.287,5.888 c -0.084,-1.206 -0.215,-2.397 -0.396,-3.573 l 20.943,-5.299 -3.08,-3.354 -18.645,4.792 c -1.072,-4.268 -2.787,-8.28 -5.035,-11.929 l 6.883,-4.067 9.764,-5.771 -0.195,-4.631 -18.713,11.155 c -0.725,-0.96 -1.488,-1.888 -2.289,-2.782 l 20.83,-12.423 -0.059,-1.348 -0.426,-10.029 -10.029,-0.426 -1.43,-0.061 -12.4,20.792 c -0.898,-0.795 -1.828,-1.556 -2.791,-2.274 l 11.143,-18.69 -4.551,-0.194 -5.771,9.765 -4.084,6.91 c -3.65,-2.233 -7.664,-3.93 -11.93,-4.988 l 1.986,-7.732 2.824,-10.986 -3.414,-3.135 -5.332,21.073 c -1.178,-0.176 -2.371,-0.301 -3.578,-0.379 l 5.926,-23.435 -0.994,-0.913 -7.394,-6.79 -7.393,6.79 -1.054,0.968 5.902,23.345 c -1.21,0.063 -2.406,0.178 -3.588,0.339 l -5.299,-20.942 -3.354,3.081 2.824,10.986 1.95,7.587 c -4.307,1.001 -8.362,2.657 -12.059,4.854 l -3.919,-6.63 -5.771,-9.765 -4.55,0.194 10.95,18.369 c -0.97,0.705 -1.911,1.448 -2.816,2.23 l -12.183,-20.431 -1.43,0.061 -10.029,0.426 -0.427,10.029 -0.057,1.348 20.416,12.176 c -0.808,0.889 -1.577,1.814 -2.309,2.77 l -18.279,-10.896 -0.197,4.631 9.765,5.771 6.419,3.794 c -2.305,3.678 -4.065,7.731 -5.167,12.048 l -18.048,-4.639 -3.081,3.354 20.335,5.146 c -0.186,1.174 -0.323,2.365 -0.412,3.569 l -22.665,-5.73 -0.968,1.054 -6.79,7.393 6.79,7.393 0.913,0.994 22.663,-5.729 c 0.063,1.211 0.178,2.406 0.339,3.588 l -20.26,5.127 3.135,3.414 17.855,-4.59 c 1.025,4.372 2.724,8.485 4.979,12.225 l -6.038,3.568 -9.765,5.771 0.193,4.551 17.801,-10.612 c 0.712,0.966 1.464,1.901 2.253,2.803 l -19.882,11.858 0.061,1.43 0.426,10.028 10.029,0.427 1.349,0.058 11.88,-19.92 c 0.898,0.795 1.829,1.554 2.793,2.271 l -10.624,17.82 4.631,0.197 5.771,-9.766 3.55,-6.006 c 3.736,2.271 7.85,3.981 12.224,5.021 l -4.57,17.781 3.354,3.08 5.094,-20.129 c 1.18,0.167 2.375,0.285 3.584,0.354 l -5.693,22.516 1.054,0.969 7.393,6.789 7.394,-6.79 0.994,-0.912 -5.715,-22.606 c 1.205,-0.084 2.396,-0.216 3.572,-0.396 l 5.127,20.261 3.414,-3.135 -2.824,-10.986 -1.783,-6.94 c 4.332,-1.097 8.4,-2.857 12.09,-5.165 l 3.721,6.295 5.771,9.766 4.631,-0.197 -10.82,-18.152 c 0.955,-0.73 1.881,-1.499 2.771,-2.307 l 12.098,20.287 1.35,-0.058 10.029,-0.427 0.426,-10.028 0.061,-1.43 -20.297,-12.106 c 0.779,-0.906 1.523,-1.847 2.227,-2.817 l 18.242,10.875 0.196,-4.551 0,0 z"
   clip-rule="evenodd" /><path
   style="fill:#fff200;fill-rule:evenodd;stroke:#000000;stroke-width:0.70000005;stroke-miterlimit:2.61310005;stroke-opacity:1"
   d="m 122.418,44.085 -6.43,4.672 2.457,7.558 -6.43,-4.671 -6.429,4.671 2.456,-7.558 -6.43,-4.672 7.948,0 2.455,-7.558 0,0 2.456,7.558 z"
   id="polygon23" /><path
   style="fill:#fff200;fill-rule:evenodd;stroke:#000000;stroke-width:0.70000005;stroke-miterlimit:2.61310005;stroke-opacity:1"
   d="m 82.221,44.085 -6.43,4.672 2.456,7.558 -6.43,-4.671 -6.429,4.671 2.456,-7.558 -6.43,-4.672 7.948,0 2.455,-7.558 0,0 2.456,7.558 z"
   id="polygon25" /><path
   style="fill:#fff200;fill-rule:evenodd;stroke:#000000;stroke-width:0.70000005;stroke-miterlimit:2.61310005;stroke-opacity:1"
   d="m 162.617,44.085 -6.429,4.672 2.455,7.558 -6.43,-4.671 -6.43,4.671 2.457,-7.558 -6.429,-4.672 7.947,0 2.455,-7.558 0,0 2.457,7.558 z"
   id="polygon27" /><path
   style="fill:#0038a8;fill-opacity:1;fill-rule:evenodd;stroke:#0038a8;stroke-width:0.21600001;stroke-miterlimit:2.61310005;stroke-opacity:1"
   d="m 16.85,195.643 1.103,2.469 0.39,0.845 0.4,0.84 0.411,0.836 0.422,0.831 0.431,0.826 0.443,0.822 0.452,0.818 0.463,0.812 0.472,0.808 0.484,0.802 0.492,0.797 0.503,0.793 0.513,0.787 0.523,0.783 0.532,0.777 0.542,0.773 0.552,0.766 0.561,0.761 0.57,0.756 0.581,0.75 0.589,0.745 0.598,0.739 0.608,0.734 0.617,0.728 0.626,0.722 0.635,0.716 0.644,0.71 0.652,0.705 0.661,0.698 0.671,0.692 1.312,1.327 0.74,-0.545 0.085,-0.045 0.254,-0.124 0.365,-0.172 0.46,-0.214 0.547,-0.252 0.625,-0.286 0.695,-0.317 0.758,-0.343 0.812,-0.367 0.857,-0.386 0.897,-0.405 0.928,-0.417 0.951,-0.426 0.967,-0.435 0.974,-0.438 0.975,-0.436 0.967,-0.435 0.951,-0.427 0.929,-0.417 0.898,-0.406 0.859,-0.386 0.814,-0.369 0.76,-0.343 0.698,-0.319 0.63,-0.288 0.553,-0.255 0.471,-0.218 0.381,-0.181 0.292,-0.143 0.245,-0.128 0.85,-0.627 -1.375,-1.237 -0.686,-0.635 -0.677,-0.642 -0.666,-0.65 -0.655,-0.658 -0.645,-0.665 -0.634,-0.672 -0.623,-0.68 -0.613,-0.687 -0.601,-0.694 -0.59,-0.702 -0.579,-0.708 -0.567,-0.716 -0.556,-0.722 -0.544,-0.728 -0.533,-0.737 -0.521,-0.742 -0.509,-0.748 -0.496,-0.755 -0.485,-0.761 -0.472,-0.767 -0.461,-0.774 -0.447,-0.779 -0.435,-0.785 -0.422,-0.791 -0.41,-0.797 -0.396,-0.803 -0.384,-0.807 -0.37,-0.814 -0.358,-0.819 -0.344,-0.824 -1.175,-2.946 0,0 -6.823,14.463 z"
   id="polygon33" /><path
   style="fill:#ffffff;fill-rule:evenodd;stroke:#0038a8;stroke-width:0.60000002;stroke-miterlimit:2.61310005;stroke-opacity:1;stroke-dasharray:none"
   inkscape:connector-curvature="0"
   id="path35"
   d="m 39.186,188.183 -6.19,13.119 -14.514,-4.316 c 3.947,8.991 9.714,17.251 16.93,24.468 -0.121,-0.105 20.816,-9.343 20.696,-9.449 -7.583,-6.727 -13.424,-14.834 -16.922,-23.822 l 0,0 z"
   stroke-miterlimit="2.6131"
   clip-rule="evenodd" /><path
   style="fill:#0038a8;fill-opacity:1;fill-rule:evenodd;stroke:#0038a8;stroke-width:0.21600001;stroke-miterlimit:2.61310005;stroke-opacity:1"
   d="m 207.316,195.643 -1.103,2.469 -0.389,0.845 -0.4,0.84 -0.41,0.836 -0.422,0.831 -0.432,0.826 -0.443,0.822 -0.451,0.818 -0.463,0.812 -0.473,0.808 -0.484,0.802 -0.492,0.797 -0.502,0.793 -0.514,0.787 -0.524,0.783 -0.531,0.777 -0.543,0.773 -0.551,0.766 -0.56,0.761 -0.572,0.756 -0.58,0.75 -0.588,0.745 -0.6,0.739 -0.607,0.734 -0.618,0.728 -0.625,0.722 -0.634,0.716 -0.645,0.71 -0.652,0.705 -0.662,0.698 -0.67,0.692 -1.311,1.327 -0.74,-0.545 -0.086,-0.045 -0.254,-0.124 -0.363,-0.172 -0.461,-0.214 -0.549,-0.252 -0.625,-0.286 -0.693,-0.317 -0.758,-0.343 -0.813,-0.367 -0.857,-0.386 -0.896,-0.405 -0.928,-0.417 -0.951,-0.426 -0.967,-0.435 -0.975,-0.438 -0.974,-0.436 -0.967,-0.435 -0.953,-0.427 -0.928,-0.417 -0.898,-0.406 -0.86,-0.386 -0.812,-0.369 -0.76,-0.343 -0.699,-0.319 -0.629,-0.288 -0.555,-0.255 -0.469,-0.218 -0.382,-0.181 -0.292,-0.143 -0.244,-0.128 -0.851,-0.627 1.375,-1.237 0.687,-0.635 0.676,-0.642 0.666,-0.65 0.654,-0.658 0.647,-0.665 0.633,-0.672 0.623,-0.68 0.613,-0.687 0.602,-0.694 0.589,-0.702 0.579,-0.708 0.568,-0.716 0.555,-0.722 0.545,-0.728 0.533,-0.737 0.519,-0.742 0.51,-0.748 0.496,-0.755 0.484,-0.761 0.473,-0.767 0.461,-0.774 0.447,-0.779 0.436,-0.785 0.422,-0.791 0.41,-0.797 0.396,-0.803 0.383,-0.807 0.371,-0.814 0.358,-0.819 0.343,-0.824 1.174,-2.946 0,0 6.825,14.463 z"
   id="polygon37" /><path
   style="fill:#ffffff;fill-rule:evenodd;stroke:#0038a8;stroke-width:0.60000002;stroke-miterlimit:2.61310005;stroke-opacity:1;stroke-dasharray:none"
   inkscape:connector-curvature="0"
   id="path39"
   d="m 184.98,188.183 6.191,13.119 14.512,-4.316 c -3.945,8.991 -9.713,17.251 -16.93,24.468 0.121,-0.105 -20.814,-9.343 -20.695,-9.449 7.583,-6.727 13.424,-14.834 16.922,-23.822 l 0,0 z"
   stroke-miterlimit="2.6131"
   clip-rule="evenodd" /><path
   style="fill:#0038a8;fill-opacity:1;fill-rule:evenodd;stroke:#0038a8;stroke-width:0.21600001;stroke-miterlimit:2.61310005;stroke-opacity:1"
   d="m 194.682,220.936 -1.869,2.397 -1.936,2.34 -2.002,2.281 -2.066,2.223 -2.131,2.161 -2.194,2.098 -2.252,2.034 -2.312,1.968 -2.369,1.901 -2.426,1.832 -2.48,1.763 -2.534,1.691 -2.584,1.617 -2.634,1.544 -2.684,1.467 -2.732,1.39 -2.776,1.311 -2.822,1.231 -2.863,1.148 -2.905,1.064 -2.945,0.981 -2.984,0.894 -3.02,0.806 -3.055,0.717 -3.089,0.626 -3.123,0.534 -3.153,0.44 -3.181,0.344 -3.209,0.248 -3.237,0.151 -3.261,0.05 -3.29,-0.051 -3.263,-0.153 -3.237,-0.253 -3.209,-0.35 -3.178,-0.447 -3.147,-0.543 -3.114,-0.637 -3.08,-0.729 -3.044,-0.819 -3.005,-0.909 -2.967,-0.996 -2.926,-1.082 -2.884,-1.168 -2.84,-1.25 -2.795,-1.332 -2.748,-1.413 -2.7,-1.491 -2.65,-1.568 -2.599,-1.643 -2.547,-1.718 -2.491,-1.79 -2.436,-1.861 -2.379,-1.93 -2.32,-1.999 -2.259,-2.066 -2.198,-2.13 -2.134,-2.193 -2.07,-2.256 -2.003,-2.315 -1.935,-2.375 -1.865,-2.433 -2.364,-3.276 18.22,-13.151 1.99,2.782 1.461,1.92 1.516,1.875 1.57,1.827 1.622,1.781 1.674,1.731 1.724,1.682 1.774,1.63 1.82,1.579 1.868,1.523 1.913,1.47 1.957,1.413 2,1.357 2.042,1.298 2.082,1.238 2.122,1.178 2.16,1.115 2.197,1.052 2.232,0.987 2.267,0.922 2.3,0.855 2.333,0.786 2.363,0.718 2.394,0.648 2.422,0.575 2.449,0.503 2.475,0.429 2.501,0.353 2.524,0.277 2.547,0.199 2.569,0.121 2.589,0.041 2.621,-0.041 2.601,-0.124 2.578,-0.205 2.555,-0.284 2.531,-0.362 2.504,-0.439 2.479,-0.516 2.449,-0.59 2.422,-0.663 2.388,-0.735 2.358,-0.806 2.326,-0.876 2.289,-0.944 2.256,-1.011 2.217,-1.077 2.179,-1.143 2.141,-1.204 2.1,-1.268 2.058,-1.328 2.014,-1.387 1.971,-1.447 1.923,-1.504 1.879,-1.558 1.83,-1.614 1.78,-1.667 1.73,-1.72 1.678,-1.771 1.625,-1.819 1.57,-1.869 1.514,-1.915 1.459,-1.962 2.035,-2.916 0,0 17.096,14.8 z"
   id="polygon41" /><path
   style="fill:#ffffff;fill-rule:evenodd;stroke:#0038a8;stroke-width:0.60000002;stroke-miterlimit:2.61310005;stroke-opacity:1;stroke-dasharray:none"
   inkscape:connector-curvature="0"
   id="path43"
   d="m 180.096,204.424 15.58,13.487 c -18.631,26.197 -49.234,43.29 -83.822,43.29 -34.885,0 -65.717,-17.388 -84.3,-43.967 l 16.617,-11.993 c 14.858,21.433 39.634,35.471 67.683,35.471 28.402,0 53.451,-14.397 68.242,-36.288 l 0,0 z"
   stroke-miterlimit="2.6131"
   clip-rule="evenodd" />
<g
   style="font-size:12px;font-style:normal;font-variant:normal;font-weight:normal;font-stretch:normal;line-height:0%;letter-spacing:0px;word-spacing:0px;fill:#0038a8;fill-opacity:1;stroke:none;font-family:Swis721 Hv BT;-inkscape-font-specification:Swis721 Hv BT"
   id="text3827"><path
     d="m 36.195565,214.08919 1.149272,1.45501 c -0.348985,0.36521 -0.513306,0.75578 -0.492963,1.17171 0.02034,0.41592 0.229098,0.87531 0.626285,1.37816 0.338243,0.42822 0.669448,0.6908 0.993614,0.78773 0.324157,0.0969 0.635469,0.0275 0.933938,-0.20824 0.434712,-0.34338 0.301537,-1.25231 -0.399525,-2.72681 -0.0096,-0.0188 -0.01786,-0.036 -0.02486,-0.0515 -0.01914,-0.0376 -0.04751,-0.0968 -0.08509,-0.17776 -0.381888,-0.78361 -0.594742,-1.3899 -0.638563,-1.81889 -0.03767,-0.38117 0.02803,-0.74652 0.197108,-1.09606 0.169066,-0.34954 0.44014,-0.67165 0.813224,-0.96634 0.697489,-0.55093 1.419026,-0.73627 2.164612,-0.55603 0.74557,0.18024 1.471981,0.71806 2.179234,1.61345 0.661109,0.83699 0.980195,1.64781 0.957258,2.43246 -0.02296,0.78465 -0.384284,1.47438 -1.083978,2.06921 l -1.118522,-1.41608 c 0.326617,-0.30014 0.485954,-0.64199 0.478013,-1.02556 -0.008,-0.38356 -0.187464,-0.79757 -0.538514,-1.24202 -0.304944,-0.38606 -0.615478,-0.62413 -0.931603,-0.71423 -0.316141,-0.0901 -0.613707,-0.0249 -0.892698,0.19542 -0.379574,0.29981 -0.341847,0.93117 0.11318,1.89408 0.122335,0.2616 0.217594,0.46558 0.285778,0.61192 0.279541,0.62737 0.468491,1.08001 0.56685,1.35793 0.09834,0.27792 0.166163,0.53386 0.203458,0.76782 0.06841,0.42009 0.02645,0.80884 -0.125876,1.16623 -0.15234,0.35739 -0.415045,0.68343 -0.788116,0.97812 -0.746165,0.58936 -1.523029,0.7947 -2.330594,0.61601 -0.807575,-0.17869 -1.572669,-0.72547 -2.295285,-1.64032 -0.712371,-0.90188 -1.061743,-1.77438 -1.048116,-2.61752 0.01362,-0.84314 0.391118,-1.58911 1.132481,-2.23791 z"
     style="font-size:12.70000076px;font-weight:bold;letter-spacing:0.40000001px;fill:#0038a8;font-family:Swis721 BT;-inkscape-font-specification:Swis721 BT Bold"
     id="path4031" /><path
     d="m 39.839649,223.06961 6.60686,-6.30756 4.577585,4.7948 -1.14824,1.09622 -3.297231,-3.45369 -1.408387,1.34459 3.014612,3.15766 -1.130298,1.07909 -3.014612,-3.15766 -1.699932,1.62293 3.451388,3.61516 -1.220004,1.16473 z"
     style="font-size:12.70000076px;font-weight:bold;letter-spacing:0.40000001px;fill:#0038a8;font-family:Swis721 BT;-inkscape-font-specification:Swis721 BT Bold"
     id="path4033" /><path
     d="m 50.692381,226.63684 1.667846,1.44633 c 0.362296,0.31418 0.692207,0.47168 0.989733,0.4725 0.29751,8.1e-4 0.583048,-0.1565 0.856613,-0.47196 0.260005,-0.29983 0.374279,-0.59883 0.342823,-0.89698 -0.03148,-0.29816 -0.211181,-0.58943 -0.539119,-0.87382 l -1.733436,-1.5032 z m -4.787537,2.65283 5.984385,-6.90095 3.345062,2.90078 c 0.752706,0.65275 1.170729,1.29706 1.25407,1.93294 0.08332,0.63589 -0.162114,1.2849 -0.736301,1.94704 -0.365655,0.42165 -0.758592,0.6965 -1.178812,0.82457 -0.420239,0.12807 -0.840579,0.10009 -1.26102,-0.0839 0.20774,0.36621 0.280065,0.71347 0.216974,1.0418 -0.06311,0.32832 -0.285715,0.73173 -0.667822,1.21024 l -0.678804,0.83956 c -0.0054,0.006 -0.01355,0.0156 -0.02438,0.0281 -0.348156,0.42039 -0.47582,0.74745 -0.382992,0.98117 l -0.182822,0.21082 -1.555407,-1.34882 c 0.03398,-0.14017 0.09932,-0.29281 0.196016,-0.45794 0.09668,-0.16514 0.22722,-0.3488 0.391613,-0.55098 l 0.610982,-0.74242 c 0.355438,-0.44143 0.525548,-0.80008 0.510327,-1.07594 -0.01523,-0.27587 -0.211806,-0.57766 -0.58972,-0.90539 l -1.503872,-1.30413 -2.327938,2.68448 z"
     style="font-size:12.70000076px;font-weight:bold;letter-spacing:0.40000001px;fill:#0038a8;font-family:Swis721 BT;-inkscape-font-specification:Swis721 BT Bold"
     id="path4035" /><path
     d="m 54.892968,236.65441 2.780845,-9.25346 1.690894,1.21748 -2.417874,6.67986 5.598365,-4.38986 1.670764,1.20298 -7.863591,5.5938 z"
     style="font-size:12.70000076px;font-weight:bold;letter-spacing:0.40000001px;fill:#0038a8;font-family:Swis721 BT;-inkscape-font-specification:Swis721 BT Bold"
     id="path4037" /><path
     d="m 60.048371,240.19332 4.858385,-7.73512 1.591134,0.99939 -4.858385,7.73511 z"
     style="font-size:12.70000076px;font-weight:bold;letter-spacing:0.40000001px;fill:#0038a8;font-family:Swis721 BT;-inkscape-font-specification:Swis721 BT Bold"
     id="path4039" /><path
     d="m 72.117,243.43802 c -0.550834,0.8822 -1.29218,1.42128 -2.22404,1.61724 -0.931875,0.19596 -1.915631,0.0174 -2.951272,-0.53571 -1.192455,-0.63684 -1.920963,-1.50396 -2.185528,-2.60136 -0.264569,-1.09739 -0.03851,-2.31707 0.678191,-3.65903 0.732271,-1.37113 1.630476,-2.24122 2.694617,-2.61026 1.06413,-0.36902 2.22889,-0.21564 3.494282,0.46015 1.028343,0.54921 1.706738,1.23373 2.035188,2.05356 0.328428,0.81984 0.277405,1.70299 -0.153071,2.64946 l -1.635518,-0.87348 c 0.174147,-0.49283 0.173671,-0.93949 -0.0014,-1.34 -0.175116,-0.40049 -0.519758,-0.73805 -1.033926,-1.01265 -0.729335,-0.38951 -1.40924,-0.45032 -2.039717,-0.18246 -0.630489,0.26788 -1.187225,0.854 -1.67021,1.75836 -0.467413,0.8752 -0.639968,1.65244 -0.517665,2.33171 0.122296,0.67928 0.5317,1.20491 1.228212,1.5769 0.503231,0.26875 0.983952,0.36028 1.442164,0.27458 0.458199,-0.0857 0.863246,-0.34392 1.215141,-0.77464 z"
     style="font-size:12.70000076px;font-weight:bold;letter-spacing:0.40000001px;fill:#0038a8;font-family:Swis721 BT;-inkscape-font-specification:Swis721 BT Bold"
     id="path4041" /><path
     d="m 72.377935,246.98517 3.543826,-8.41886 6.109818,2.57186 -0.615899,1.46315 -4.400898,-1.85251 -0.755439,1.79465 4.023678,1.69373 -0.606276,1.44029 -4.023678,-1.69372 -0.911819,2.16615 4.606654,1.93912 -0.654393,1.55461 z"
     style="font-size:12.70000076px;font-weight:bold;letter-spacing:0.40000001px;fill:#0038a8;font-family:Swis721 BT;-inkscape-font-specification:Swis721 BT Bold"
     id="path4043" /><path
     d="m 88.095052,252.68713 2.024913,-8.90705 1.844298,0.41927 -0.754702,3.31974 3.676504,0.83581 0.754702,-3.31974 1.844299,0.41928 -2.024912,8.90706 -1.844299,-0.41928 0.89767,-3.94861 -3.676504,-0.83581 -0.89767,3.94861 z"
     style="font-size:12.70000076px;font-weight:bold;letter-spacing:0.40000001px;fill:#0038a8;font-family:Swis721 BT;-inkscape-font-specification:Swis721 BT Bold"
     id="path4045" /><path
     d="m 99.770992,250.42407 c -0.117927,0.99765 0.01217,1.79877 0.390308,2.40338 0.37812,0.6046 0.96542,0.95398 1.7619,1.04812 0.80468,0.0951 1.4634,-0.10697 1.97619,-0.60627 0.51276,-0.4993 0.82811,-1.24777 0.94604,-2.24542 0.11792,-0.99764 -0.0142,-1.799 -0.39646,-2.4041 -0.38224,-0.60508 -0.9757,-0.95519 -1.78038,-1.05031 -0.79648,-0.0941 -1.44893,0.10766 -1.95735,0.60538 -0.50843,0.49774 -0.821843,1.24748 -0.940248,2.24922 z m -1.902915,-0.22493 c 0.173244,-1.46567 0.709963,-2.58136 1.610158,-3.34709 0.900185,-0.76571 2.027695,-1.0685 3.382525,-0.90837 1.35482,0.16015 2.3826,0.71874 3.08333,1.67577 0.70071,0.95704 0.96469,2.16634 0.79194,3.6279 -0.17277,1.46158 -0.71142,2.576 -1.61595,3.34329 -0.90455,0.76729 -2.03423,1.07086 -3.38905,0.91072 -1.35483,-0.16014 -2.380554,-0.71849 -3.077169,-1.67504 -0.696618,-0.95654 -0.958546,-2.1656 -0.785784,-3.62718 z"
     style="font-size:12.70000076px;font-weight:bold;letter-spacing:0.40000001px;fill:#0038a8;font-family:Swis721 BT;-inkscape-font-specification:Swis721 BT Bold"
     id="path4047" /><path
     d="m 108.09489,255.85924 0.0784,-9.13399 1.9657,0.0169 3.65431,6.30718 0.0539,-6.27536 1.85408,0.0159 -0.0784,9.134 -1.94089,-0.0167 -3.67912,-6.30739 -0.0538,6.27535 z"
     style="font-size:12.70000076px;font-weight:bold;letter-spacing:0.40000001px;fill:#0038a8;font-family:Swis721 BT;-inkscape-font-specification:Swis721 BT Bold"
     id="path4049" /><path
     d="m 118.98052,251.14398 c 0.10057,0.99955 0.40082,1.75359 0.90073,2.26213 0.49991,0.50855 1.14885,0.72267 1.94685,0.64237 0.80621,-0.0811 1.40566,-0.42086 1.79835,-1.01922 0.39268,-0.59836 0.53873,-1.39731 0.43816,-2.39685 -0.10058,-0.99954 -0.40288,-1.75338 -0.9069,-2.26151 -0.50403,-0.50813 -1.15914,-0.72163 -1.96535,-0.64051 -0.798,0.0803 -1.39138,0.41839 -1.78016,1.01427 -0.38878,0.5959 -0.53267,1.39567 -0.43168,2.39932 z m -1.90653,0.19184 c -0.14776,-1.46846 0.13502,-2.67381 0.84836,-3.61607 0.71333,-0.94224 1.7487,-1.48165 3.1061,-1.61825 1.3574,-0.13657 2.48164,0.18658 3.37272,0.96945 0.89107,0.7829 1.41028,1.90651 1.55764,3.37086 0.14734,1.46435 -0.13761,2.66888 -0.85484,3.6136 -0.71725,0.94472 -1.75457,1.48537 -3.11197,1.62196 -1.35741,0.13658 -2.47959,-0.18678 -3.36655,-0.97008 -0.88696,-0.78329 -1.40412,-1.90712 -1.55146,-3.37147 z"
     style="font-size:12.70000076px;font-weight:bold;letter-spacing:0.40000001px;fill:#0038a8;font-family:Swis721 BT;-inkscape-font-specification:Swis721 BT Bold"
     id="path4051" /><path
     d="m 129.07871,249.22652 2.16181,-0.44739 c 0.4696,-0.0972 0.79503,-0.26373 0.97629,-0.49967 0.18125,-0.23593 0.22957,-0.55833 0.14496,-0.96722 -0.0804,-0.38863 -0.24867,-0.66095 -0.50469,-0.81694 -0.25604,-0.15598 -0.5966,-0.18999 -1.02167,-0.10203 l -2.24682,0.46498 z m -0.79815,5.41489 -1.85114,-8.94479 4.33576,-0.89729 c 0.97564,-0.2019 1.74142,-0.14296 2.29732,0.17682 0.5559,0.3198 0.92266,0.90882 1.10028,1.76706 0.11309,0.54653 0.093,1.02563 -0.0603,1.43731 -0.15333,0.41169 -0.43073,0.72874 -0.8322,0.95114 0.41712,0.0572 0.73698,0.21055 0.95959,0.45999 0.2226,0.24946 0.40804,0.67125 0.55633,1.26537 l 0.25511,1.04907 c 0.002,0.008 0.004,0.0203 0.008,0.0364 0.12273,0.53187 0.30513,0.83186 0.5472,0.89997 l 0.0566,0.27326 -2.01607,0.41723 c -0.0908,-0.11209 -0.17239,-0.25668 -0.24492,-0.43376 -0.0725,-0.17707 -0.13924,-0.3923 -0.20011,-0.64567 l -0.21908,-0.93621 c -0.13503,-0.55043 -0.31677,-0.90332 -0.54523,-1.05869 -0.22846,-0.15536 -0.58762,-0.18235 -1.07746,-0.081 l -1.94927,0.4034 0.72009,3.47954 z"
     style="font-size:12.70000076px;font-weight:bold;letter-spacing:0.40000001px;fill:#0038a8;font-family:Swis721 BT;-inkscape-font-specification:Swis721 BT Bold"
     id="path4053" /><path
     d="m 143.37596,247.22368 1.69346,-0.6584 0.39998,1.02879 c 0.11535,0.29669 0.29199,0.48861 0.5299,0.57575 0.23792,0.0871 0.52256,0.0663 0.85393,-0.0625 0.3622,-0.14082 0.57787,-0.33334 0.64704,-0.57758 0.0692,-0.24422 0.003,-0.62643 -0.19962,-1.14661 l -2.30777,-5.93576 1.75125,-0.68087 2.33923,6.01668 c 0.20973,0.53944 0.33187,0.94771 0.36642,1.22481 0.0345,0.2771 0.0161,0.54044 -0.0555,0.79002 -0.11263,0.37202 -0.33431,0.70882 -0.66505,1.0104 -0.33075,0.30158 -0.75813,0.55423 -1.28215,0.75797 -0.48165,0.18726 -0.93289,0.28729 -1.35372,0.3001 -0.42084,0.0128 -0.80474,-0.0619 -1.15171,-0.22422 -0.27741,-0.13166 -0.50734,-0.30951 -0.68981,-0.53354 -0.18246,-0.22402 -0.38829,-0.6308 -0.6175,-1.22033 z"
     style="font-size:12.70000076px;font-weight:bold;letter-spacing:0.40000001px;fill:#0038a8;font-family:Swis721 BT;-inkscape-font-specification:Swis721 BT Bold"
     id="path4055" /><path
     d="m 148.02823,239.22384 1.70445,-0.834 2.51836,5.14679 c 0.3107,0.635 0.66363,1.03647 1.05877,1.20441 0.39515,0.16795 0.86751,0.11747 1.4171,-0.15145 0.55701,-0.27254 0.89184,-0.61587 1.00448,-1.02999 0.11264,-0.4141 0.0127,-0.94051 -0.29982,-1.57922 l -2.51835,-5.1468 1.68775,-0.82582 2.60829,5.33061 c 0.4924,1.00634 0.58904,1.91636 0.28993,2.73008 -0.29912,0.81372 -0.97784,1.4795 -2.03616,1.99734 -1.06575,0.52148 -2.01305,0.65247 -2.8419,0.39297 -0.82885,-0.25949 -1.49039,-0.89426 -1.98461,-1.90432 z"
     style="font-size:12.70000076px;font-weight:bold;letter-spacing:0.40000001px;fill:#0038a8;font-family:Swis721 BT;-inkscape-font-specification:Swis721 BT Bold"
     id="path4057" /><path
     d="m 158.76204,240.95156 1.58392,-0.96389 c 0.32008,0.39079 0.68778,0.60137 1.1031,0.63174 0.41531,0.0304 0.89666,-0.121 1.44406,-0.45412 0.46617,-0.28368 0.76706,-0.58051 0.90267,-0.89049 0.1356,-0.30998 0.10455,-0.62742 -0.0932,-0.95233 -0.28799,-0.47323 -1.20637,-0.45153 -2.75515,0.0651 -0.0198,0.007 -0.0379,0.0134 -0.0541,0.0184 -0.0396,0.0144 -0.10188,0.0354 -0.18678,0.0629 -0.82422,0.2838 -1.4519,0.42138 -1.88303,0.41273 -0.38292,-0.009 -0.73758,-0.11857 -1.06398,-0.32888 -0.32639,-0.2103 -0.61316,-0.51852 -0.86032,-0.92466 -0.46206,-0.75928 -0.55832,-1.498 -0.28879,-2.21615 0.26954,-0.71813 0.89167,-1.37378 1.86639,-1.96695 0.91115,-0.55446 1.75474,-0.77262 2.53078,-0.65448 0.77604,0.11817 1.41674,0.56065 1.92211,1.32746 l -1.54154,0.9381 c -0.25822,-0.36068 -0.57816,-0.56039 -0.95985,-0.59913 -0.38169,-0.0387 -0.81445,0.0891 -1.29828,0.38355 -0.42026,0.25575 -0.69431,0.53504 -0.82217,0.83787 -0.12785,0.30285 -0.0994,0.60613 0.0855,0.90983 0.25145,0.41321 0.88271,0.45251 1.89379,0.1179 0.27454,-0.0896 0.48857,-0.15939 0.64212,-0.20928 0.6567,-0.20121 1.12895,-0.33373 1.41677,-0.39758 0.28781,-0.0638 0.55009,-0.10004 0.78685,-0.10862 0.4253,-0.0168 0.80606,0.0721 1.14229,0.26671 0.33622,0.19465 0.6279,0.49504 0.87506,0.90116 0.49429,0.81228 0.60368,1.60834 0.32815,2.3882 -0.27553,0.77986 -0.91125,1.47282 -1.90716,2.07887 -0.98178,0.59746 -1.89029,0.83818 -2.72552,0.72217 -0.83522,-0.11601 -1.52978,-0.58138 -2.08365,-1.39611 z"
     style="font-size:12.70000076px;font-weight:bold;letter-spacing:0.40000001px;fill:#0038a8;font-family:Swis721 BT;-inkscape-font-specification:Swis721 BT Bold"
     id="path4059" /><path
     d="m 169.64446,237.30956 -4.4286,-6.05713 -2.18757,1.59942 -0.96258,-1.31655 5.87691,-4.29684 0.96258,1.31655 -2.17255,1.58844 4.42859,6.05713 z"
     style="font-size:12.70000076px;font-weight:bold;letter-spacing:0.40000001px;fill:#0038a8;font-family:Swis721 BT;-inkscape-font-specification:Swis721 BT Bold"
     id="path4061" /><path
     d="m 174.49859,233.5978 -5.84042,-7.0232 1.44469,-1.20139 5.84042,7.0232 z"
     style="font-size:12.70000076px;font-weight:bold;letter-spacing:0.40000001px;fill:#0038a8;font-family:Swis721 BT;-inkscape-font-specification:Swis721 BT Bold"
     id="path4063" /><path
     d="m 181.31274,223.12698 c 0.66969,0.79574 0.95427,1.66707 0.85373,2.61399 -0.10054,0.94693 -0.57339,1.82789 -1.41855,2.64286 -0.97312,0.93838 -2.02245,1.36445 -3.14798,1.2782 -1.12554,-0.0862 -2.21632,-0.67693 -3.27235,-1.77207 -1.07898,-1.11893 -1.63017,-2.24144 -1.65356,-3.36751 -0.0234,-1.12606 0.48124,-2.18697 1.51388,-3.18275 0.83921,-0.80923 1.69938,-1.24385 2.58051,-1.30386 0.88114,-0.06 1.70566,0.26053 2.47355,0.96156 l -1.33469,1.28703 c -0.41525,-0.31745 -0.84035,-0.45455 -1.27532,-0.41131 -0.43496,0.0433 -0.86224,0.26721 -1.28184,0.67182 -0.59518,0.57394 -0.86243,1.20207 -0.80174,1.8844 0.0607,0.68234 0.44687,1.39252 1.15854,2.13054 0.68872,0.71422 1.37504,1.11775 2.05897,1.21058 0.68393,0.0928 1.31009,-0.13479 1.8785,-0.6829 0.41067,-0.39601 0.64579,-0.82518 0.70536,-1.28751 0.0596,-0.46233 -0.0614,-0.92721 -0.36277,-1.39465 z"
     style="font-size:12.70000076px;font-weight:bold;letter-spacing:0.40000001px;fill:#0038a8;font-family:Swis721 BT;-inkscape-font-specification:Swis721 BT Bold"
     id="path4065" /><path
     d="m 184.7633,223.96613 -6.95659,-5.91961 4.29604,-5.0486 1.20902,1.0288 -3.09443,3.6365 1.48293,1.26189 2.8292,-3.32481 1.19013,1.01273 -2.8292,3.3248 1.78992,1.52311 3.23911,-3.80653 1.28458,1.0931 z"
     style="font-size:12.70000076px;font-weight:bold;letter-spacing:0.40000001px;fill:#0038a8;font-family:Swis721 BT;-inkscape-font-specification:Swis721 BT Bold"
     id="path4067" /></g><path
   style="fill:none;stroke:none"
   d="m 33.735862,215.37014 c 17.759819,24.75103 47.719905,40.27932 78.182438,40.52189 29.612,0.2358 59.00746,-13.93213 77.27068,-37.24266"
   id="path3872" /><path
   style="fill:#000000;fill-opacity:1;stroke:#000100;stroke-width:0.60000002;stroke-linecap:butt;stroke-linejoin:miter;stroke-miterlimit:4;stroke-opacity:1;stroke-dasharray:none"
   d="m 91.906239,153.01527 -12.443502,-13.70249 0.08784,-3.80624 6.148554,1.5225 7.671053,14.84436 1.551778,0.79053 0.819807,1.1126 1.229711,-0.1464 0.76125,0.17568 1.581056,-2.89861 0.761244,-2.98644 c 0,0 0.29274,-2.80711 0.35135,-4.21615 0.0625,-1.50168 -0.24375,-3.02586 0,-4.50894 0.24726,-1.50444 0.88598,-2.97079 1.75084,-4.2605 0.70663,-1.05376 1.29911,-1.1286 2.50672,-1.51773 1.4593,-0.47024 7.17457,-0.0604 7.17457,-0.0604 -1.15055,-1.51448 -1.87967,0.4679 -2.56704,-0.59413 0.9352,0.2338 -2.77593,0.82642 -2.61295,0.12887 0.16286,-0.69705 0.75956,-5.36944 0.77669,-6.1645 0.22177,-1.26392 0.64913,-2.11243 1.34496,-2.9323 0.65508,-0.77185 2.51798,-1.69817 2.51798,-1.69817 l 0.76129,-2.22518 c -0.16014,-0.0356 0.979,-1.92494 3.33779,-1.75673 1.52201,0.10853 3.61012,1.98508 2.98644,2.40086 l -0.0586,2.45942 c 0,0 1.25273,2.40484 1.46395,3.74769 0.16995,1.08049 0.12329,3.25172 0.12329,3.25172 l -3.63987,1.40669 0.9941,2.391 c 0,0 1.15303,-0.53318 2.42632,-0.75532 1.27328,-0.22263 2.11504,-0.66639 2.3799,-0.73111 1.40931,-0.34482 2.34231,-2.69366 2.34231,-2.69366 l -0.0213,-0.75414 3.2905,-0.13843 c 0,0 -0.19256,2.27086 0.29985,3.25203 0.52535,1.04671 2.68654,1.40416 2.68654,1.40416 l 0.0201,22.64589 -1.47398,0.58557 0.2805,11.69824 c 0,0 -0.4809,0.80489 -0.88384,0.9836 -0.47212,0.20939 -1.54939,-0.006 -1.54939,-0.006 0,0 -0.58032,-0.30321 -0.89227,-0.26143 -0.32832,0.044 -0.70269,0.70269 -0.70269,0.70269 0,0 -0.17754,1.62296 -0.40991,2.40086 -0.67051,2.24462 -2.81076,6.44134 -2.81076,6.44134 l 0.13132,6.14501 c 0,0 1.76273,0.8593 2.63155,1.26816 0.83026,0.39073 1.71765,1.31903 1.71765,1.31903 0,0 0.94296,0.43308 0.90678,0.75415 -0.0748,0.66346 -1.22971,1.58105 -1.22971,1.58105 l -6.20001,0.002 c 0,0 -0.52138,-0.78144 -0.82336,-1.04633 -0.22459,-0.197 -0.47495,-0.36997 -0.47495,-0.36997 l -0.73761,-0.56487 c 0,0 -0.10743,-2.0042 -0.11249,-4.49006 -0.005,-2.48586 0.0922,-5.45338 0.50169,-7.38 0.28031,-1.31892 0.99548,-3.60129 0.99548,-3.60129 0,0 0.38062,-1.59541 0.11716,-2.40086 -0.2961,-0.90526 -1.07199,-1.38836 -1.86169,-2.23072 -0.7897,-0.84236 -1.30357,-1.23014 -1.59321,-2.04399 -0.60225,-1.69222 -0.11712,-5.38731 -0.11712,-5.38731 0,0 -1.27111,0.3586 -1.69817,0.81981 -0.67692,0.73106 -0.67012,1.98553 -1.08895,2.78357 -0.96343,1.83572 -2.76842,2.78928 -3.5371,4.71181 -0.63774,1.59503 -0.19055,3.17507 -0.64419,4.68461 -0.41979,1.3969 -0.9834,2.49859 -1.89232,3.94552 -0.90892,1.44693 -1.2749,1.75436 -1.67969,3.05212 -0.87509,2.80555 -0.76125,8.78365 -0.76125,8.78365 0.70645,1.92798 1.16265,2.1989 1.1785,3.68913 0.39526,0.67341 0.29049,1.59821 0.29049,1.59821 l -2.28877,-0.0757 -2.75221,0.17568 -1.2297,-1.02476 0.11711,-12.9998 c 0,0 1.73664,-1.84012 2.43933,-2.8844 0.70269,-1.04428 1.77682,-3.38127 1.77682,-3.38127 0,0 -1.11302,-9.21984 -0.0586,-13.64394 0.29284,-1.22867 1.01622,-2.43277 1.72365,-3.37452 0.97728,-1.30096 3.42943,-3.18393 3.42943,-3.18393 0,0 0.49434,-3.07637 0.46846,-4.62606 -0.0243,-1.45735 -0.75121,-3.25669 -0.75121,-3.25669 0,0 0.35614,-1.27554 0.13133,-1.94245 -0.25594,-0.75926 -1.59527,-2.57066 -1.59527,-2.57066 0,0 -1.20224,0.76606 -1.78241,2.14184 -0.58018,1.37578 -0.37266,2.69878 -0.86566,3.81267 -0.82159,1.85631 -2.63216,5.62154 -2.63216,5.62154 l -2.927881,2.81077 c 0,0 0.08897,0.5452 0.117116,0.8198 0.03191,0.31129 0.05856,0.93693 0.05856,0.93693 l 1.346825,3.4549 c 0,0 -2.22442,0.76815 -3.22067,0.35134 -1.10239,-0.46122 -1.284023,-2.07443 -2.225191,-2.81076 -0.743027,-0.58132 -1.870045,-0.54595 -2.576537,-1.17116 -0.308353,-0.27288 -0.644134,-1.05403 -0.644134,-1.05403 z"
   id="path3902"
   inkscape:connector-curvature="0"
   sodipodi:nodetypes="cccccccccccssssccscsccsccscccsccccsccccscscsccscsccsccsscssscsssssscccccccscsscscscssccsccssscc"
   transform="translate(0,-2.1821805e-6)" /><path
   style="fill:none;stroke:#00449c;stroke-width:1px;stroke-linecap:butt;stroke-linejoin:miter;stroke-opacity:1"
   d="m 44.386702,204.42889 12.707011,7.84673"
   id="path3904"
   inkscape:connector-curvature="0"
   transform="translate(0,-2.1821805e-6)"
   sodipodi:nodetypes="cc" /><path
   transform="translate(0,-2.1821805e-6)"
   style="fill:none;stroke:#0038a8;stroke-width:1.4000001;stroke-linecap:butt;stroke-linejoin:miter;stroke-miterlimit:4;stroke-opacity:1"
   d="m 167.57069,212.14846 12.58107,-8.63934"
   id="path3906" /><path
   transform="matrix(1.2929166,0,0,9.0094549,-22.982726,-877.40848)"
   style="fill:none;stroke:none"
   d="m 41.155506,112.7609 c 11.022313,-5.58507 48.396608,-8.69012 83.477824,-6.93532 19.90234,0.99553 35.72329,3.4186 42.74227,6.54622 l -62.69993,3.56644 z"
   id="path3910" /><g
   style="font-size:15.40000057px;font-style:normal;font-variant:normal;font-weight:normal;font-stretch:normal;line-height:0%;letter-spacing:0px;word-spacing:0px;fill:#ffffff;fill-opacity:1;stroke:none;font-family:Swis721 Hv BT;-inkscape-font-specification:Swis721 Hv BT"
   id="text3912"><path
     d="m 26.049623,132.58081 0.69113,-2.00141 c 0.187136,-0.5419 0.208176,-0.97551 0.06312,-1.30084 -0.145048,-0.32531 -0.472589,-0.57604 -0.982623,-0.75217 -0.478148,-0.16511 -0.88185,-0.16945 -1.211107,-0.013 -0.329245,0.15645 -0.576429,0.47374 -0.741552,0.95189 l -0.728871,2.1107 z m 1.819094,0.64346 3.579317,1.23602 -0.714719,2.06972 -10.061704,-3.47452 1.545018,-4.47415 c 0.364837,-1.05648 0.915578,-1.76207 1.652227,-2.11677 0.736661,-0.35469 1.635511,-0.34883 2.69655,0.0176 1.038278,0.35855 1.746621,0.90132 2.12503,1.62832 0.378414,0.72701 0.396999,1.58461 0.05576,2.57278 z"
     style="font-size:14.80000019px;font-weight:bold;line-height:0%;fill:#ffffff;font-family:Swis721 BT;-inkscape-font-specification:Swis721 BT Bold"
     id="path3979" /><path
     d="m 34.037236,127.20646 -9.649917,-4.49325 0.930374,-1.99812 3.596609,1.67467 1.854648,-3.98312 -3.596609,-1.67468 0.930375,-1.99811 9.649917,4.49325 -0.930374,1.99811 -4.277934,-1.99191 -1.854648,3.98313 4.277934,1.99191 z"
     style="font-size:14.80000019px;font-weight:bold;line-height:0%;fill:#ffffff;font-family:Swis721 BT;-inkscape-font-specification:Swis721 BT Bold"
     id="path3981" /><path
     d="m 38.91272,117.25334 -9.264685,-5.24174 1.078239,-1.90577 9.264685,5.24174 z"
     style="font-size:14.80000019px;font-weight:bold;line-height:0%;fill:#ffffff;font-family:Swis721 BT;-inkscape-font-specification:Swis721 BT Bold"
     id="path3983" /><path
     d="m 41.117204,113.36679 -8.884363,-5.8633 1.206096,-1.82754 7.243802,4.78061 2.861992,-4.33664 1.640561,1.08271 z"
     style="font-size:14.80000019px;font-weight:bold;line-height:0%;fill:#ffffff;font-family:Swis721 BT;-inkscape-font-specification:Swis721 BT Bold"
     id="path3985" /><path
     d="m 46.010393,106.22639 -8.454467,-6.467779 1.33044,-1.739106 8.454467,6.467785 z"
     style="font-size:14.80000019px;font-weight:bold;line-height:0%;fill:#ffffff;font-family:Swis721 BT;-inkscape-font-specification:Swis721 BT Bold"
     id="path3987" /><path
     d="m 45.928828,97.205039 1.414233,-1.575834 c 0.382921,-0.426668 0.570728,-0.818065 0.563422,-1.174192 -0.0073,-0.356109 -0.211748,-0.714365 -0.613326,-1.074771 -0.376478,-0.337861 -0.746799,-0.498662 -1.110963,-0.482402 -0.36416,0.01628 -0.715177,0.212655 -1.053051,0.589124 l -1.49146,1.661887 z m 1.426346,1.299495 2.818216,2.529206 -1.4625,1.62962 -7.9222,-7.109779 3.161511,-3.522771 c 0.746538,-0.831827 1.528097,-1.268108 2.344679,-1.308842 0.816586,-0.04071 1.64259,0.313806 2.478015,1.063547 0.817497,0.733674 1.259408,1.508959 1.325736,2.325855 0.06632,0.816915 -0.249646,1.614396 -0.947912,2.392446 z"
     style="font-size:14.80000019px;font-weight:bold;line-height:0%;fill:#ffffff;font-family:Swis721 BT;-inkscape-font-specification:Swis721 BT Bold"
     id="path3989" /><path
     d="m 53.237507,89.650747 1.5787,-1.411034 c 0.427451,-0.382047 0.657096,-0.750457 0.688934,-1.105233 0.03184,-0.354758 -0.132035,-0.733295 -0.491615,-1.135613 -0.337107,-0.377153 -0.687534,-0.57764 -1.051281,-0.601462 -0.363746,-0.0238 -0.734202,0.132847 -1.111367,0.469944 l -1.664908,1.488087 z m 1.275047,1.448242 2.523487,2.82334 -1.63258,1.459192 -7.093697,-7.936603 3.529176,-3.154359 c 0.833354,-0.744834 1.658089,-1.092667 2.474206,-1.043499 0.816119,0.04919 1.598206,0.492255 2.346264,1.329187 0.732001,0.818995 1.086119,1.638111 1.062357,2.457351 -0.02377,0.819259 -0.425388,1.577227 -1.204857,2.273908 z"
     style="font-size:14.80000019px;font-weight:bold;line-height:0%;fill:#ffffff;font-family:Swis721 BT;-inkscape-font-specification:Swis721 BT Bold"
     id="path3991" /><path
     d="m 62.961145,88.900695 -6.417929,-8.492372 1.746903,-1.320185 6.417929,8.492372 z"
     style="font-size:14.80000019px;font-weight:bold;line-height:0%;fill:#ffffff;font-family:Swis721 BT;-inkscape-font-specification:Swis721 BT Bold"
     id="path3993" /><path
     d="m 66.500996,86.164769 -5.621593,-9.039242 1.945308,-1.209807 7.531921,3.928038 -3.862222,-6.210259 1.83485,-1.141111 5.621593,9.039242 -1.920762,1.19454 -7.556467,-3.912772 3.862222,6.21026 z"
     style="font-size:14.80000019px;font-weight:bold;line-height:0%;fill:#ffffff;font-family:Swis721 BT;-inkscape-font-specification:Swis721 BT Bold"
     id="path3995" /><path
     d="m 75.921917,80.509035 -4.462095,-9.664362 7.013716,-3.238276 0.77549,1.679617 -5.051976,2.332528 0.951187,2.060156 4.618949,-2.132597 0.763373,1.653374 -4.618949,2.132597 1.148088,2.486622 5.288172,-2.441582 0.823958,1.784594 z"
     style="font-size:14.80000019px;font-weight:bold;line-height:0%;fill:#ffffff;font-family:Swis721 BT;-inkscape-font-specification:Swis721 BT Bold"
     id="path3997" /><path
     d="m 88.727118,75.159019 -2.650791,-10.309389 2.218653,-0.57047 6.006528,6.006741 -1.821182,-7.082894 2.092673,-0.538076 2.650792,10.309389 -2.190658,0.563271 -6.034524,-5.999542 1.821182,7.082893 z"
     style="font-size:14.80000019px;font-weight:bold;line-height:0%;fill:#ffffff;font-family:Swis721 BT;-inkscape-font-specification:Swis721 BT Bold"
     id="path3999" /><path
     d="m 102.35706,63.675684 -0.93769,4.671673 2.93564,-0.343473 z m -1.511,-1.96959 2.51216,-0.293925 5.04832,10.126679 -2.28248,0.267053 -0.97222,-2.090835 -4.09841,0.479519 -0.44177,2.256273 -2.289654,0.267892 z"
     style="font-size:14.80000019px;font-weight:bold;line-height:0%;fill:#ffffff;font-family:Swis721 BT;-inkscape-font-specification:Swis721 BT Bold"
     id="path4001" /><path
     d="m 111.71592,71.600185 0.0542,-8.743973 -3.15795,-0.01957 0.0118,-1.900549 8.48382,0.05257 -0.0118,1.900549 -3.13627,-0.01944 -0.0542,8.743973 z"
     style="font-size:14.80000019px;font-weight:bold;line-height:0%;fill:#ffffff;font-family:Swis721 BT;-inkscape-font-specification:Swis721 BT Bold"
     id="path4003" /><path
     d="m 118.36598,71.83456 0.98448,-10.599104 2.18026,0.20251 -0.98448,10.599104 z"
     style="font-size:14.80000019px;font-weight:bold;line-height:0%;fill:#ffffff;font-family:Swis721 BT;-inkscape-font-specification:Swis721 BT Bold"
     id="path4005" /><path
     d="m 125.60455,67.316725 c -0.22874,1.148144 -0.15126,2.09079 0.23242,2.827939 0.38368,0.737154 1.03383,1.197034 1.95046,1.379643 0.92607,0.184492 1.70991,0.01029 2.35153,-0.522603 0.6416,-0.532892 1.07677,-1.373409 1.30551,-2.521552 0.22873,-1.148136 0.14889,-2.091252 -0.23951,-2.829352 -0.38841,-0.738086 -1.04565,-1.199378 -1.97172,-1.383878 -0.91663,-0.182601 -1.69315,-0.0082 -2.32956,0.523295 -0.63642,0.531479 -1.06946,1.373648 -1.29913,2.526508 z m -2.18997,-0.436286 c 0.33603,-1.686768 1.06214,-2.933543 2.17833,-3.740329 1.11618,-0.806769 2.45387,-1.054846 4.01308,-0.744232 1.5592,0.310633 2.70182,1.054065 3.42787,2.230298 0.72603,1.176248 0.9215,2.605392 0.58641,4.287438 -0.33511,1.682051 -1.06334,2.927175 -2.18471,3.735374 -1.12139,0.808198 -2.46168,1.056985 -4.02088,0.746363 -1.55921,-0.310625 -2.69946,-1.053586 -3.42078,-2.228886 -0.72131,-1.175299 -0.91442,-2.603972 -0.57932,-4.286026 z"
     style="font-size:14.80000019px;font-weight:bold;line-height:0%;fill:#ffffff;font-family:Swis721 BT;-inkscape-font-specification:Swis721 BT Bold"
     id="path4007" /><path
     d="m 134.25271,74.646377 3.53637,-10.040133 2.16071,0.761053 1.64643,8.333582 2.4296,-6.897905 2.03802,0.717838 -3.53637,10.040133 -2.13344,-0.75145 -1.6737,-8.343185 -2.4296,6.897905 z"
     style="font-size:14.80000019px;font-weight:bold;line-height:0%;fill:#ffffff;font-family:Swis721 BT;-inkscape-font-specification:Swis721 BT Bold"
     id="path4009" /><path
     d="m 151.93695,72.653587 -3.36166,3.376835 2.63706,1.334862 z m -0.17197,-2.476452 2.25665,1.142303 -1.3838,11.230326 -2.05033,-1.037864 0.34415,-2.27999 -3.68157,-1.863586 -1.61432,1.637037 -2.05678,-1.041128 z"
     style="font-size:14.80000019px;font-weight:bold;line-height:0%;fill:#ffffff;font-family:Swis721 BT;-inkscape-font-specification:Swis721 BT Bold"
     id="path4011" /><path
     d="m 153.53432,83.195493 5.84216,-8.898281 1.8304,1.201747 -4.76336,7.25515 4.34343,2.85167 -1.0788,1.643132 z"
     style="font-size:14.80000019px;font-weight:bold;line-height:0%;fill:#ffffff;font-family:Swis721 BT;-inkscape-font-specification:Swis721 BT Bold"
     id="path4013" /><path
     d="m 169.45215,87.846992 1.56881,1.422021 c 0.42476,0.38503 0.81523,0.574773 1.17138,0.569231 0.35614,-0.0055 0.71541,-0.208207 1.0778,-0.607995 0.33972,-0.374801 0.50235,-0.74432 0.4879,-1.10856 -0.0145,-0.364237 -0.20911,-0.716222 -0.5839,-1.055956 l -1.65448,-1.499674 z m -1.30655,1.419892 -2.54313,2.805654 -1.62236,-1.470554 7.14893,-7.886887 3.50707,3.178921 c 0.82812,0.750649 1.26053,1.534359 1.29722,2.351133 0.0367,0.816777 -0.32194,1.641015 -1.07581,2.472717 -0.73772,0.813852 -1.51518,1.251918 -2.33239,1.314199 -0.81724,0.06228 -1.61314,-0.257639 -2.38773,-0.95975 z"
     style="font-size:14.80000019px;font-weight:bold;line-height:0%;fill:#ffffff;font-family:Swis721 BT;-inkscape-font-specification:Swis721 BT Bold"
     id="path4015" /><path
     d="m 176.42534,95.163002 c -0.88392,0.767619 -1.39992,1.560291 -1.54799,2.378018 -0.14809,0.817725 0.0843,1.579427 0.69712,2.285107 0.61914,0.712953 1.3455,1.055233 2.17908,1.026853 0.83356,-0.0284 1.6923,-0.4264 2.57622,-1.19401 0.88391,-0.767621 1.39833,-1.562111 1.54326,-2.383474 0.14491,-0.821364 -0.0922,-1.588522 -0.71134,-2.301476 -0.61284,-0.705676 -1.33355,-1.043292 -2.16213,-1.01285 -0.8286,0.03045 -1.68667,0.431057 -2.57422,1.201832 z m -1.46416,-1.685988 c 1.29859,-1.127732 2.63612,-1.668748 4.0126,-1.623051 1.37646,0.04571 2.58591,0.668747 3.62837,1.869123 1.04243,1.200382 1.4905,2.487824 1.3442,3.862332 -0.14632,1.374506 -0.86695,2.624052 -2.16189,3.748632 -1.29497,1.12457 -2.63317,1.66297 -4.01461,1.61522 -1.38145,-0.0478 -2.5934,-0.67183 -3.63584,-1.87221 -1.04244,-1.200382 -1.48893,-2.486006 -1.33946,-3.856874 0.14946,-1.37087 0.87167,-2.618593 2.16663,-3.743172 z"
     style="font-size:14.80000019px;font-weight:bold;line-height:0%;fill:#ffffff;font-family:Swis721 BT;-inkscape-font-specification:Swis721 BT Bold"
     id="path4017" /><path
     d="m 178.75371,106.26141 8.74521,-6.06889 1.24839,1.79891 -7.13035,4.94823 2.96235,4.26871 -1.61487,1.12066 z"
     style="font-size:14.80000019px;font-weight:bold;line-height:0%;fill:#ffffff;font-family:Swis721 BT;-inkscape-font-specification:Swis721 BT Bold"
     id="path4019" /><path
     d="m 183.56453,113.45764 9.13972,-5.45672 1.12246,1.88006 -9.13972,5.45672 z"
     style="font-size:14.80000019px;font-weight:bold;line-height:0%;fill:#ffffff;font-family:Swis721 BT;-inkscape-font-specification:Swis721 BT Bold"
     id="path4021" /><path
     d="m 193.27336,123.96259 c -1.12037,0.46232 -2.18854,0.47028 -3.20449,0.0239 -1.01596,-0.44642 -1.82703,-1.28294 -2.43322,-2.50954 -0.69797,-1.41234 -0.80011,-2.72818 -0.30643,-3.94752 0.49368,-1.21934 1.53523,-2.22176 3.12465,-3.00724 1.62397,-0.80256 3.06529,-1.01778 4.32399,-0.64564 1.25868,0.37213 2.25836,1.30756 2.99903,2.80627 0.60191,1.21798 0.78043,2.32679 0.53555,3.32645 -0.2449,0.99966 -0.89231,1.80191 -1.94223,2.40677 l -0.95731,-1.9371 c 0.49932,-0.34887 0.80185,-0.77245 0.9076,-1.27074 0.10573,-0.49829 0.008,-1.05193 -0.29283,-1.66092 -0.42691,-0.86381 -1.02993,-1.38264 -1.80906,-1.55647 -0.77915,-0.17384 -1.70429,0.004 -2.77541,0.53326 -1.03658,0.51228 -1.72731,1.13173 -2.07219,1.85837 -0.34488,0.72664 -0.31348,1.50243 0.0942,2.32737 0.29455,0.59603 0.68799,1.00885 1.18033,1.23845 0.49232,0.22959 1.05129,0.25966 1.67691,0.0902 z"
     style="font-size:14.80000019px;font-weight:bold;line-height:0%;fill:#ffffff;font-family:Swis721 BT;-inkscape-font-specification:Swis721 BT Bold"
     id="path4023" /><path
     d="m 190.73848,127.18189 10.08274,-3.41303 2.47693,7.31734 -1.75233,0.59317 -1.78413,-5.27068 -2.14934,0.72756 1.6312,4.8189 -1.72494,0.5839 -1.63121,-4.8189 -2.59427,0.87816 1.86755,5.5171 -1.86185,0.63024 z"
     style="font-size:14.80000019px;font-weight:bold;line-height:0%;fill:#ffffff;font-family:Swis721 BT;-inkscape-font-specification:Swis721 BT Bold"
     id="path4025" /></g></svg>