<svg xmlns="http://www.w3.org/2000/svg" version="1.1" xmlns:xlink="http://www.w3.org/1999/xlink" xmlns:svgjs="http://svgjs.dev/svgjs" width="128" height="128" viewBox="0 0 128 128"><g transform="matrix(0.8046875,0,0,0.8046875,12.221578124999994,5.555233470394732)"><svg viewBox="0 0 83 95" data-background-color="#ffffff" preserveAspectRatio="xMidYMid meet" height="146" width="128" xmlns="http://www.w3.org/2000/svg" xmlns:xlink="http://www.w3.org/1999/xlink"><g id="tight-bounds" transform="matrix(1,0,0,1,0.2243593750000059,-0.24049999999999727)"><svg viewBox="0 0 82.55128124999999 95.481" height="95.481" width="82.55128124999999"><g><svg viewBox="0 0 82.55128124999999 95.481" height="95.481" width="82.55128124999999"><g><svg viewBox="0 0 82.55128124999999 95.481" height="95.481" width="82.55128124999999"><g id="textblocktransform"><svg viewBox="0 0 82.55128124999999 95.481" height="95.481" width="82.55128124999999" id="textblock"><g><svg viewBox="0 0 82.55128124999999 95.481" height="95.481" width="82.55128124999999"><g><svg viewBox="0 0 82.55128124999999 95.481" height="95.481" width="82.55128124999999"><g><svg xmlns="http://www.w3.org/2000/svg" xmlns:xlink="http://www.w3.org/1999/xlink" version="1.1" x="0" y="0" viewBox="9 1 83 96" enable-background="new 0 0 100 100" xml:space="preserve" height="95.481" width="82.55128124999999" class="icon-icon-0" data-fill-palette-color="accent" id="icon-0"><g fill="#ffdc00" data-fill-palette-color="accent"><path fill="#ffdc00" d="M71.3 10.01C57.831 10.01 50.55 1 50.55 1s-7.306 9.01-20.774 9.01C17.371 10.01 9 2.528 9 2.528v48.928C9.378 83.682 50.5 97 50.5 97S92 83.682 92 51.456V2.528C92 2.528 83.703 10.01 71.3 10.01z" data-fill-palette-color="accent"></path></g></svg></g></svg></g></svg></g></svg></g></svg></g></svg></g><defs></defs></svg><rect width="82.55128124999999" height="95.481" fill="none" stroke="none" visibility="hidden"></rect></g></svg></g></svg>